<mxfile host="Electron" agent="Mozilla/5.0 (Windows NT 10.0; Win64; x64) AppleWebKit/537.36 (KHTML, like Gecko) draw.io/26.0.9 Chrome/128.0.6613.186 Electron/32.2.5 Safari/537.36" version="26.0.9" pages="2">
  <diagram name="Page-1" id="L7GYwFYkRU5kGg1bHk9R">
    <mxGraphModel dx="2298" dy="1242" grid="0" gridSize="10" guides="1" tooltips="1" connect="1" arrows="1" fold="1" page="1" pageScale="1" pageWidth="1400" pageHeight="850" math="0" shadow="0">
      <root>
        <mxCell id="0" />
        <mxCell id="1" parent="0" />
        <mxCell id="_VZ59ulktlH3t3TgStL4-17" value="" style="rounded=0;whiteSpace=wrap;html=1;labelBackgroundColor=none;fillColor=#FAE5C7;strokeColor=#0F8B8D;fontColor=#143642;" vertex="1" parent="1">
          <mxGeometry x="604" y="123" width="200" height="260" as="geometry" />
        </mxCell>
        <mxCell id="_VZ59ulktlH3t3TgStL4-18" value="" style="endArrow=classic;html=1;rounded=0;labelBackgroundColor=none;strokeColor=#A8201A;fontColor=default;" edge="1" parent="1">
          <mxGeometry width="50" height="50" relative="1" as="geometry">
            <mxPoint x="545" y="163" as="sourcePoint" />
            <mxPoint x="604" y="163" as="targetPoint" />
          </mxGeometry>
        </mxCell>
        <mxCell id="_VZ59ulktlH3t3TgStL4-19" value="" style="endArrow=classic;html=1;rounded=0;entryX=-0.001;entryY=0.082;entryDx=0;entryDy=0;entryPerimeter=0;labelBackgroundColor=none;strokeColor=#A8201A;fontColor=default;" edge="1" parent="1">
          <mxGeometry width="50" height="50" relative="1" as="geometry">
            <mxPoint x="544" y="183" as="sourcePoint" />
            <mxPoint x="604" y="183" as="targetPoint" />
          </mxGeometry>
        </mxCell>
        <mxCell id="_VZ59ulktlH3t3TgStL4-20" value="" style="endArrow=classic;html=1;rounded=0;entryX=-0.001;entryY=0.167;entryDx=0;entryDy=0;entryPerimeter=0;labelBackgroundColor=none;strokeColor=#A8201A;fontColor=default;" edge="1" parent="1">
          <mxGeometry width="50" height="50" relative="1" as="geometry">
            <mxPoint x="544.2" y="203" as="sourcePoint" />
            <mxPoint x="604" y="203.08" as="targetPoint" />
          </mxGeometry>
        </mxCell>
        <mxCell id="_VZ59ulktlH3t3TgStL4-21" value="" style="endArrow=classic;html=1;rounded=0;entryX=-0.002;entryY=0.208;entryDx=0;entryDy=0;entryPerimeter=0;labelBackgroundColor=none;strokeColor=#A8201A;fontColor=default;" edge="1" parent="1">
          <mxGeometry width="50" height="50" relative="1" as="geometry">
            <mxPoint x="544.4" y="223.07999999999998" as="sourcePoint" />
            <mxPoint x="604" y="223" as="targetPoint" />
          </mxGeometry>
        </mxCell>
        <mxCell id="_VZ59ulktlH3t3TgStL4-22" value="" style="endArrow=classic;html=1;rounded=0;entryX=0;entryY=0.25;entryDx=0;entryDy=0;labelBackgroundColor=none;strokeColor=#A8201A;fontColor=default;" edge="1" parent="1">
          <mxGeometry width="50" height="50" relative="1" as="geometry">
            <mxPoint x="544" y="243" as="sourcePoint" />
            <mxPoint x="604" y="242.99999999999997" as="targetPoint" />
            <Array as="points">
              <mxPoint x="594" y="243" />
            </Array>
          </mxGeometry>
        </mxCell>
        <mxCell id="_VZ59ulktlH3t3TgStL4-23" value="" style="endArrow=classic;html=1;rounded=0;entryX=-0.002;entryY=0.292;entryDx=0;entryDy=0;entryPerimeter=0;labelBackgroundColor=none;strokeColor=#A8201A;fontColor=default;" edge="1" parent="1">
          <mxGeometry width="50" height="50" relative="1" as="geometry">
            <mxPoint x="544.4" y="262.87" as="sourcePoint" />
            <mxPoint x="604" y="262.95" as="targetPoint" />
          </mxGeometry>
        </mxCell>
        <mxCell id="_VZ59ulktlH3t3TgStL4-24" value="" style="endArrow=classic;html=1;rounded=0;labelBackgroundColor=none;strokeColor=#A8201A;fontColor=default;" edge="1" parent="1">
          <mxGeometry width="50" height="50" relative="1" as="geometry">
            <mxPoint x="545" y="281" as="sourcePoint" />
            <mxPoint x="604" y="281" as="targetPoint" />
          </mxGeometry>
        </mxCell>
        <mxCell id="_VZ59ulktlH3t3TgStL4-25" value="" style="endArrow=classic;html=1;rounded=0;labelBackgroundColor=none;strokeColor=#A8201A;fontColor=default;entryX=0;entryY=0.074;entryDx=0;entryDy=0;entryPerimeter=0;" edge="1" parent="1" target="_VZ59ulktlH3t3TgStL4-17">
          <mxGeometry width="50" height="50" relative="1" as="geometry">
            <mxPoint x="545" y="142" as="sourcePoint" />
            <mxPoint x="591" y="136" as="targetPoint" />
          </mxGeometry>
        </mxCell>
        <mxCell id="_VZ59ulktlH3t3TgStL4-26" value="" style="endArrow=classic;html=1;rounded=0;labelBackgroundColor=none;strokeColor=#A8201A;fontColor=default;" edge="1" parent="1">
          <mxGeometry width="50" height="50" relative="1" as="geometry">
            <mxPoint x="545" y="299" as="sourcePoint" />
            <mxPoint x="603.9999999999999" y="299.00193548387097" as="targetPoint" />
          </mxGeometry>
        </mxCell>
        <mxCell id="_VZ59ulktlH3t3TgStL4-27" value="&lt;font style=&quot;font-size: 10px;&quot;&gt;clk&lt;/font&gt;" style="text;html=1;align=center;verticalAlign=middle;resizable=0;points=[];autosize=1;strokeColor=none;fillColor=none;rounded=0;labelBackgroundColor=none;fontColor=#143642;" vertex="1" parent="1">
          <mxGeometry x="593" y="148" width="40" height="30" as="geometry" />
        </mxCell>
        <mxCell id="_VZ59ulktlH3t3TgStL4-28" value="&lt;font style=&quot;font-size: 10px;&quot;&gt;rst&lt;/font&gt;" style="text;html=1;align=center;verticalAlign=middle;resizable=0;points=[];autosize=1;strokeColor=none;fillColor=none;fontColor=#143642;" vertex="1" parent="1">
          <mxGeometry x="597.5" y="127" width="29" height="26" as="geometry" />
        </mxCell>
        <mxCell id="_VZ59ulktlH3t3TgStL4-29" value="&lt;font style=&quot;font-size: 10px;&quot;&gt;sel&lt;/font&gt;" style="text;html=1;align=center;verticalAlign=middle;resizable=0;points=[];autosize=1;strokeColor=none;fillColor=none;fontColor=#143642;" vertex="1" parent="1">
          <mxGeometry x="597.5" y="169" width="31" height="26" as="geometry" />
        </mxCell>
        <mxCell id="_VZ59ulktlH3t3TgStL4-30" value="&lt;font style=&quot;font-size: 10px;&quot;&gt;sel2&lt;/font&gt;" style="text;html=1;align=center;verticalAlign=middle;resizable=0;points=[];autosize=1;strokeColor=none;fillColor=none;fontColor=#143642;" vertex="1" parent="1">
          <mxGeometry x="597" y="189" width="36" height="26" as="geometry" />
        </mxCell>
        <mxCell id="_VZ59ulktlH3t3TgStL4-31" value="&lt;font style=&quot;font-size: 10px;&quot;&gt;regw&lt;/font&gt;" style="text;html=1;align=center;verticalAlign=middle;resizable=0;points=[];autosize=1;strokeColor=none;fillColor=none;fontColor=#143642;" vertex="1" parent="1">
          <mxGeometry x="597" y="210" width="40" height="26" as="geometry" />
        </mxCell>
        <mxCell id="_VZ59ulktlH3t3TgStL4-32" value="&lt;font style=&quot;font-size: 10px;&quot;&gt;alu_src&lt;/font&gt;" style="text;html=1;align=center;verticalAlign=middle;resizable=0;points=[];autosize=1;strokeColor=none;fillColor=none;fontColor=#143642;" vertex="1" parent="1">
          <mxGeometry x="596.5" y="230" width="50" height="26" as="geometry" />
        </mxCell>
        <mxCell id="_VZ59ulktlH3t3TgStL4-33" value="&lt;font style=&quot;font-size: 10px;&quot;&gt;memw&lt;/font&gt;" style="text;html=1;align=center;verticalAlign=middle;resizable=0;points=[];autosize=1;strokeColor=none;fillColor=none;fontColor=#143642;" vertex="1" parent="1">
          <mxGeometry x="597.5" y="249" width="47" height="26" as="geometry" />
        </mxCell>
        <mxCell id="_VZ59ulktlH3t3TgStL4-34" value="&lt;font style=&quot;font-size: 10px;&quot;&gt;memr&lt;/font&gt;" style="text;html=1;align=center;verticalAlign=middle;resizable=0;points=[];autosize=1;strokeColor=none;fillColor=none;fontColor=#143642;" vertex="1" parent="1">
          <mxGeometry x="597" y="267" width="44" height="26" as="geometry" />
        </mxCell>
        <mxCell id="_VZ59ulktlH3t3TgStL4-35" value="&lt;font style=&quot;font-size: 10px;&quot;&gt;alu_op&lt;/font&gt;" style="text;html=1;align=center;verticalAlign=middle;resizable=0;points=[];autosize=1;strokeColor=none;fillColor=none;fontColor=#143642;" vertex="1" parent="1">
          <mxGeometry x="597.5" y="285" width="48" height="26" as="geometry" />
        </mxCell>
        <mxCell id="_VZ59ulktlH3t3TgStL4-36" value="" style="endArrow=none;html=1;rounded=0;strokeColor=#A8201A;fontColor=#143642;fillColor=#FAE5C7;" edge="1" parent="1">
          <mxGeometry width="50" height="50" relative="1" as="geometry">
            <mxPoint x="567" y="304" as="sourcePoint" />
            <mxPoint x="579" y="293" as="targetPoint" />
          </mxGeometry>
        </mxCell>
        <mxCell id="_VZ59ulktlH3t3TgStL4-37" value="&lt;font style=&quot;font-size: 10px;&quot;&gt;4&lt;/font&gt;" style="text;html=1;align=center;verticalAlign=middle;resizable=0;points=[];autosize=1;strokeColor=none;fillColor=none;fontColor=#143642;" vertex="1" parent="1">
          <mxGeometry x="561" y="297" width="24" height="26" as="geometry" />
        </mxCell>
        <mxCell id="_VZ59ulktlH3t3TgStL4-39" value="" style="endArrow=classic;html=1;rounded=0;entryX=-0.001;entryY=0.082;entryDx=0;entryDy=0;entryPerimeter=0;labelBackgroundColor=none;strokeColor=#A8201A;fontColor=default;" edge="1" parent="1">
          <mxGeometry width="50" height="50" relative="1" as="geometry">
            <mxPoint x="340" y="457" as="sourcePoint" />
            <mxPoint x="400" y="457" as="targetPoint" />
          </mxGeometry>
        </mxCell>
        <mxCell id="_VZ59ulktlH3t3TgStL4-40" value="" style="endArrow=classic;html=1;rounded=0;entryX=-0.001;entryY=0.082;entryDx=0;entryDy=0;entryPerimeter=0;labelBackgroundColor=none;strokeColor=#A8201A;fontColor=default;" edge="1" parent="1">
          <mxGeometry width="50" height="50" relative="1" as="geometry">
            <mxPoint x="340" y="487.69" as="sourcePoint" />
            <mxPoint x="400" y="487.69" as="targetPoint" />
          </mxGeometry>
        </mxCell>
        <mxCell id="_VZ59ulktlH3t3TgStL4-41" value="" style="endArrow=classic;html=1;rounded=0;entryX=-0.001;entryY=0.082;entryDx=0;entryDy=0;entryPerimeter=0;labelBackgroundColor=none;strokeColor=#A8201A;fontColor=default;" edge="1" parent="1">
          <mxGeometry width="50" height="50" relative="1" as="geometry">
            <mxPoint x="340" y="508" as="sourcePoint" />
            <mxPoint x="400" y="508" as="targetPoint" />
          </mxGeometry>
        </mxCell>
        <mxCell id="_VZ59ulktlH3t3TgStL4-42" value="" style="endArrow=classic;html=1;rounded=0;entryX=-0.001;entryY=0.082;entryDx=0;entryDy=0;entryPerimeter=0;labelBackgroundColor=none;strokeColor=#A8201A;fontColor=default;" edge="1" parent="1">
          <mxGeometry width="50" height="50" relative="1" as="geometry">
            <mxPoint x="340" y="530" as="sourcePoint" />
            <mxPoint x="400" y="530" as="targetPoint" />
          </mxGeometry>
        </mxCell>
        <mxCell id="_VZ59ulktlH3t3TgStL4-43" value="" style="endArrow=classic;html=1;rounded=0;entryX=-0.001;entryY=0.082;entryDx=0;entryDy=0;entryPerimeter=0;labelBackgroundColor=none;strokeColor=#A8201A;fontColor=default;" edge="1" parent="1">
          <mxGeometry width="50" height="50" relative="1" as="geometry">
            <mxPoint x="340" y="547.69" as="sourcePoint" />
            <mxPoint x="400" y="547.69" as="targetPoint" />
          </mxGeometry>
        </mxCell>
        <mxCell id="_VZ59ulktlH3t3TgStL4-44" value="" style="endArrow=classic;html=1;rounded=0;entryX=-0.001;entryY=0.082;entryDx=0;entryDy=0;entryPerimeter=0;labelBackgroundColor=none;strokeColor=#A8201A;fontColor=default;" edge="1" parent="1">
          <mxGeometry width="50" height="50" relative="1" as="geometry">
            <mxPoint x="340" y="568.69" as="sourcePoint" />
            <mxPoint x="400" y="568.69" as="targetPoint" />
          </mxGeometry>
        </mxCell>
        <mxCell id="_VZ59ulktlH3t3TgStL4-45" value="" style="endArrow=classic;html=1;rounded=0;entryX=-0.001;entryY=0.082;entryDx=0;entryDy=0;entryPerimeter=0;labelBackgroundColor=none;strokeColor=#A8201A;fontColor=default;" edge="1" parent="1">
          <mxGeometry width="50" height="50" relative="1" as="geometry">
            <mxPoint x="340" y="586.69" as="sourcePoint" />
            <mxPoint x="400" y="586.69" as="targetPoint" />
          </mxGeometry>
        </mxCell>
        <mxCell id="_VZ59ulktlH3t3TgStL4-47" value="" style="rounded=0;whiteSpace=wrap;html=1;strokeColor=#0F8B8D;fontColor=#143642;fillColor=#FAE5C7;" vertex="1" parent="1">
          <mxGeometry x="140" y="440" width="200" height="170" as="geometry" />
        </mxCell>
        <mxCell id="_VZ59ulktlH3t3TgStL4-48" value="&lt;font style=&quot;font-size: 10px;&quot;&gt;Branch&lt;/font&gt;" style="text;html=1;align=center;verticalAlign=middle;resizable=0;points=[];autosize=1;strokeColor=none;fillColor=none;fontColor=#143642;" vertex="1" parent="1">
          <mxGeometry x="297" y="443" width="50" height="26" as="geometry" />
        </mxCell>
        <mxCell id="_VZ59ulktlH3t3TgStL4-49" value="&lt;font style=&quot;font-size: 10px;&quot;&gt;MemRead&lt;/font&gt;" style="text;html=1;align=center;verticalAlign=middle;resizable=0;points=[];autosize=1;strokeColor=none;fillColor=none;fontColor=#143642;" vertex="1" parent="1">
          <mxGeometry x="283" y="475" width="64" height="26" as="geometry" />
        </mxCell>
        <mxCell id="_VZ59ulktlH3t3TgStL4-50" value="&lt;font style=&quot;font-size: 10px;&quot;&gt;MemtoReg&lt;/font&gt;" style="text;html=1;align=center;verticalAlign=middle;resizable=0;points=[];autosize=1;strokeColor=none;fillColor=none;fontColor=#143642;" vertex="1" parent="1">
          <mxGeometry x="280.5" y="493" width="67" height="26" as="geometry" />
        </mxCell>
        <mxCell id="_VZ59ulktlH3t3TgStL4-51" value="&lt;font style=&quot;font-size: 10px;&quot;&gt;ALUOp&lt;/font&gt;" style="text;html=1;align=center;verticalAlign=middle;resizable=0;points=[];autosize=1;strokeColor=none;fillColor=none;fontColor=#143642;" vertex="1" parent="1">
          <mxGeometry x="297" y="515" width="51" height="26" as="geometry" />
        </mxCell>
        <mxCell id="_VZ59ulktlH3t3TgStL4-52" value="&lt;span style=&quot;font-size: 10px;&quot;&gt;MemWrite&lt;/span&gt;" style="text;html=1;align=center;verticalAlign=middle;resizable=0;points=[];autosize=1;strokeColor=none;fillColor=none;fontColor=#143642;" vertex="1" parent="1">
          <mxGeometry x="284.5" y="535" width="63" height="26" as="geometry" />
        </mxCell>
        <mxCell id="_VZ59ulktlH3t3TgStL4-53" value="&lt;font style=&quot;font-size: 10px;&quot;&gt;ALUSrc&lt;/font&gt;" style="text;html=1;align=center;verticalAlign=middle;resizable=0;points=[];autosize=1;strokeColor=none;fillColor=none;fontColor=#143642;" vertex="1" parent="1">
          <mxGeometry x="295" y="556" width="52" height="26" as="geometry" />
        </mxCell>
        <mxCell id="_VZ59ulktlH3t3TgStL4-54" value="&lt;font style=&quot;font-size: 10px;&quot;&gt;RegWrite&lt;/font&gt;" style="text;html=1;align=center;verticalAlign=middle;resizable=0;points=[];autosize=1;strokeColor=none;fillColor=none;fontColor=#143642;" vertex="1" parent="1">
          <mxGeometry x="287" y="574" width="60" height="26" as="geometry" />
        </mxCell>
        <mxCell id="_VZ59ulktlH3t3TgStL4-73" style="edgeStyle=orthogonalEdgeStyle;rounded=0;orthogonalLoop=1;jettySize=auto;html=1;exitX=1;exitY=0.5;exitDx=0;exitDy=0;exitPerimeter=0;strokeColor=#A8201A;fontColor=#143642;fillColor=#FAE5C7;" edge="1" parent="1" source="_VZ59ulktlH3t3TgStL4-63">
          <mxGeometry relative="1" as="geometry">
            <mxPoint x="480" y="111" as="targetPoint" />
          </mxGeometry>
        </mxCell>
        <mxCell id="_VZ59ulktlH3t3TgStL4-63" value="" style="verticalLabelPosition=bottom;shadow=0;dashed=0;align=center;html=1;verticalAlign=top;shape=mxgraph.electrical.logic_gates.logic_gate;operation=and;strokeColor=#0F8B8D;fontColor=#143642;fillColor=#FAE5C7;" vertex="1" parent="1">
          <mxGeometry x="434" y="101" width="39" height="20" as="geometry" />
        </mxCell>
        <mxCell id="_VZ59ulktlH3t3TgStL4-64" value="" style="endArrow=none;html=1;rounded=0;strokeColor=#A8201A;fontColor=#143642;fillColor=#FAE5C7;entryX=0;entryY=0.75;entryDx=0;entryDy=0;entryPerimeter=0;" edge="1" parent="1" target="_VZ59ulktlH3t3TgStL4-63">
          <mxGeometry width="50" height="50" relative="1" as="geometry">
            <mxPoint x="398" y="457" as="sourcePoint" />
            <mxPoint x="363" y="154" as="targetPoint" />
            <Array as="points">
              <mxPoint x="428" y="457" />
              <mxPoint x="430" y="116" />
            </Array>
          </mxGeometry>
        </mxCell>
        <mxCell id="_VZ59ulktlH3t3TgStL4-150" value="n1" style="edgeLabel;html=1;align=center;verticalAlign=middle;resizable=0;points=[];strokeColor=#0F8B8D;fontColor=#143642;fillColor=#FAE5C7;" vertex="1" connectable="0" parent="_VZ59ulktlH3t3TgStL4-64">
          <mxGeometry x="0.3861" y="-1" relative="1" as="geometry">
            <mxPoint as="offset" />
          </mxGeometry>
        </mxCell>
        <mxCell id="_VZ59ulktlH3t3TgStL4-66" value="" style="endArrow=classic;html=1;rounded=0;labelBackgroundColor=none;strokeColor=#A8201A;fontColor=default;exitX=0.307;exitY=0.998;exitDx=0;exitDy=0;exitPerimeter=0;" edge="1" parent="1">
          <mxGeometry width="50" height="50" relative="1" as="geometry">
            <mxPoint x="660.4000000000001" y="382.9999999999999" as="sourcePoint" />
            <mxPoint x="660" y="418.52" as="targetPoint" />
          </mxGeometry>
        </mxCell>
        <mxCell id="_VZ59ulktlH3t3TgStL4-67" value="" style="endArrow=classic;html=1;rounded=0;labelBackgroundColor=none;strokeColor=#A8201A;fontColor=default;exitX=0.307;exitY=0.998;exitDx=0;exitDy=0;exitPerimeter=0;" edge="1" parent="1">
          <mxGeometry width="50" height="50" relative="1" as="geometry">
            <mxPoint x="677" y="383" as="sourcePoint" />
            <mxPoint x="677" y="419" as="targetPoint" />
          </mxGeometry>
        </mxCell>
        <mxCell id="_VZ59ulktlH3t3TgStL4-68" value="" style="endArrow=classic;html=1;rounded=0;labelBackgroundColor=none;strokeColor=#A8201A;fontColor=default;exitX=0.307;exitY=0.998;exitDx=0;exitDy=0;exitPerimeter=0;" edge="1" parent="1">
          <mxGeometry width="50" height="50" relative="1" as="geometry">
            <mxPoint x="739" y="383" as="sourcePoint" />
            <mxPoint x="739" y="419" as="targetPoint" />
          </mxGeometry>
        </mxCell>
        <mxCell id="_VZ59ulktlH3t3TgStL4-69" value="" style="endArrow=classic;html=1;rounded=0;labelBackgroundColor=none;strokeColor=#A8201A;fontColor=default;entryX=0.464;entryY=0.998;entryDx=0;entryDy=0;entryPerimeter=0;" edge="1" parent="1" target="_VZ59ulktlH3t3TgStL4-47">
          <mxGeometry width="50" height="50" relative="1" as="geometry">
            <mxPoint x="233" y="644" as="sourcePoint" />
            <mxPoint x="234" y="687" as="targetPoint" />
          </mxGeometry>
        </mxCell>
        <mxCell id="_VZ59ulktlH3t3TgStL4-70" value="" style="endArrow=none;html=1;rounded=0;strokeColor=#A8201A;fontColor=#143642;fillColor=#FAE5C7;" edge="1" parent="1">
          <mxGeometry width="50" height="50" relative="1" as="geometry">
            <mxPoint x="839" y="418" as="sourcePoint" />
            <mxPoint x="739" y="418" as="targetPoint" />
          </mxGeometry>
        </mxCell>
        <mxCell id="_VZ59ulktlH3t3TgStL4-71" value="" style="endArrow=none;html=1;rounded=0;strokeColor=#A8201A;fontColor=#143642;fillColor=#FAE5C7;entryX=0;entryY=0.25;entryDx=0;entryDy=0;entryPerimeter=0;" edge="1" parent="1" target="_VZ59ulktlH3t3TgStL4-63">
          <mxGeometry width="50" height="50" relative="1" as="geometry">
            <mxPoint x="839" y="418" as="sourcePoint" />
            <mxPoint x="420" y="94" as="targetPoint" />
            <Array as="points">
              <mxPoint x="840" y="94" />
              <mxPoint x="434" y="94" />
            </Array>
          </mxGeometry>
        </mxCell>
        <mxCell id="_VZ59ulktlH3t3TgStL4-148" value="n8" style="edgeLabel;html=1;align=center;verticalAlign=middle;resizable=0;points=[];strokeColor=#0F8B8D;fontColor=#143642;fillColor=#FAE5C7;" vertex="1" connectable="0" parent="_VZ59ulktlH3t3TgStL4-71">
          <mxGeometry x="0.4484" relative="1" as="geometry">
            <mxPoint as="offset" />
          </mxGeometry>
        </mxCell>
        <mxCell id="_VZ59ulktlH3t3TgStL4-72" value="" style="endArrow=none;html=1;rounded=0;strokeColor=#A8201A;fontColor=#143642;fillColor=#FAE5C7;" edge="1" parent="1">
          <mxGeometry width="50" height="50" relative="1" as="geometry">
            <mxPoint x="479" y="111" as="sourcePoint" />
            <mxPoint x="544" y="183" as="targetPoint" />
            <Array as="points">
              <mxPoint x="479" y="183" />
            </Array>
          </mxGeometry>
        </mxCell>
        <mxCell id="_VZ59ulktlH3t3TgStL4-147" value="n9" style="edgeLabel;html=1;align=center;verticalAlign=middle;resizable=0;points=[];strokeColor=#0F8B8D;fontColor=#143642;fillColor=#FAE5C7;" vertex="1" connectable="0" parent="_VZ59ulktlH3t3TgStL4-72">
          <mxGeometry x="-0.5414" y="2" relative="1" as="geometry">
            <mxPoint as="offset" />
          </mxGeometry>
        </mxCell>
        <mxCell id="_VZ59ulktlH3t3TgStL4-74" value="" style="endArrow=none;html=1;rounded=0;strokeColor=#A8201A;fontColor=#143642;fillColor=#FAE5C7;" edge="1" parent="1">
          <mxGeometry width="50" height="50" relative="1" as="geometry">
            <mxPoint x="399" y="488" as="sourcePoint" />
            <mxPoint x="545" y="281" as="targetPoint" />
            <Array as="points">
              <mxPoint x="499" y="489" />
              <mxPoint x="500" y="281" />
            </Array>
          </mxGeometry>
        </mxCell>
        <mxCell id="_VZ59ulktlH3t3TgStL4-151" value="n2" style="edgeLabel;html=1;align=center;verticalAlign=middle;resizable=0;points=[];strokeColor=#0F8B8D;fontColor=#143642;fillColor=#FAE5C7;" vertex="1" connectable="0" parent="_VZ59ulktlH3t3TgStL4-74">
          <mxGeometry x="0.4104" relative="1" as="geometry">
            <mxPoint as="offset" />
          </mxGeometry>
        </mxCell>
        <mxCell id="_VZ59ulktlH3t3TgStL4-75" value="" style="rounded=0;whiteSpace=wrap;html=1;strokeColor=#0F8B8D;fontColor=#143642;fillColor=#FAE5C7;" vertex="1" parent="1">
          <mxGeometry x="935" y="466.5" width="274" height="163" as="geometry" />
        </mxCell>
        <mxCell id="_VZ59ulktlH3t3TgStL4-76" value="" style="endArrow=none;html=1;rounded=0;strokeColor=#A8201A;fontColor=#143642;fillColor=#FAE5C7;" edge="1" parent="1">
          <mxGeometry width="50" height="50" relative="1" as="geometry">
            <mxPoint x="233" y="644" as="sourcePoint" />
            <mxPoint x="660" y="418" as="targetPoint" />
            <Array as="points">
              <mxPoint x="233" y="650" />
              <mxPoint x="660" y="650" />
            </Array>
          </mxGeometry>
        </mxCell>
        <mxCell id="_VZ59ulktlH3t3TgStL4-163" value="n10" style="edgeLabel;html=1;align=center;verticalAlign=middle;resizable=0;points=[];strokeColor=#0F8B8D;fontColor=#143642;fillColor=#FAE5C7;" vertex="1" connectable="0" parent="_VZ59ulktlH3t3TgStL4-76">
          <mxGeometry x="-0.0128" y="-1" relative="1" as="geometry">
            <mxPoint as="offset" />
          </mxGeometry>
        </mxCell>
        <mxCell id="_VZ59ulktlH3t3TgStL4-77" value="" style="endArrow=classic;html=1;rounded=0;entryX=0.003;entryY=0.403;entryDx=0;entryDy=0;entryPerimeter=0;labelBackgroundColor=none;strokeColor=#A8201A;fontColor=default;" edge="1" parent="1">
          <mxGeometry width="50" height="50" relative="1" as="geometry">
            <mxPoint x="849.18" y="600" as="sourcePoint" />
            <mxPoint x="935.0020000000001" y="600.1890000000001" as="targetPoint" />
          </mxGeometry>
        </mxCell>
        <mxCell id="_VZ59ulktlH3t3TgStL4-78" value="" style="endArrow=none;html=1;rounded=0;strokeColor=#A8201A;fontColor=#143642;fillColor=#FAE5C7;" edge="1" parent="1">
          <mxGeometry width="50" height="50" relative="1" as="geometry">
            <mxPoint x="399" y="530" as="sourcePoint" />
            <mxPoint x="623" y="532" as="targetPoint" />
          </mxGeometry>
        </mxCell>
        <mxCell id="_VZ59ulktlH3t3TgStL4-157" value="n4" style="edgeLabel;html=1;align=center;verticalAlign=middle;resizable=0;points=[];strokeColor=#0F8B8D;fontColor=#143642;fillColor=#FAE5C7;" vertex="1" connectable="0" parent="_VZ59ulktlH3t3TgStL4-78">
          <mxGeometry x="0.7382" y="1" relative="1" as="geometry">
            <mxPoint x="1" as="offset" />
          </mxGeometry>
        </mxCell>
        <mxCell id="_VZ59ulktlH3t3TgStL4-79" value="" style="endArrow=none;html=1;rounded=0;strokeColor=#A8201A;fontColor=#143642;curved=1;fillColor=#FAE5C7;edgeStyle=orthogonalEdgeStyle;" edge="1" parent="1">
          <mxGeometry width="50" height="50" relative="1" as="geometry">
            <mxPoint x="623" y="532" as="sourcePoint" />
            <mxPoint x="679" y="532" as="targetPoint" />
            <Array as="points">
              <mxPoint x="655" y="532" />
              <mxPoint x="655" y="522" />
              <mxPoint x="664" y="522" />
              <mxPoint x="664" y="532" />
            </Array>
          </mxGeometry>
        </mxCell>
        <mxCell id="_VZ59ulktlH3t3TgStL4-80" value="" style="endArrow=none;html=1;rounded=0;strokeColor=#A8201A;fontColor=#143642;fillColor=#FAE5C7;" edge="1" parent="1">
          <mxGeometry width="50" height="50" relative="1" as="geometry">
            <mxPoint x="679" y="532" as="sourcePoint" />
            <mxPoint x="851" y="600" as="targetPoint" />
            <Array as="points">
              <mxPoint x="679" y="599" />
            </Array>
          </mxGeometry>
        </mxCell>
        <mxCell id="_VZ59ulktlH3t3TgStL4-81" value="" style="endArrow=none;html=1;rounded=0;strokeColor=#A8201A;fontColor=#143642;curved=1;fillColor=#FAE5C7;" edge="1" parent="1">
          <mxGeometry width="50" height="50" relative="1" as="geometry">
            <mxPoint x="677" y="522" as="sourcePoint" />
            <mxPoint x="677" y="418" as="targetPoint" />
          </mxGeometry>
        </mxCell>
        <mxCell id="_VZ59ulktlH3t3TgStL4-82" value="" style="endArrow=none;html=1;rounded=0;strokeColor=#A8201A;fontColor=#143642;curved=1;fillColor=#FAE5C7;" edge="1" parent="1">
          <mxGeometry width="50" height="50" relative="1" as="geometry">
            <mxPoint x="677" y="522" as="sourcePoint" />
            <mxPoint x="776" y="522" as="targetPoint" />
          </mxGeometry>
        </mxCell>
        <mxCell id="_VZ59ulktlH3t3TgStL4-149" value="n12" style="edgeLabel;html=1;align=center;verticalAlign=middle;resizable=0;points=[];strokeColor=#0F8B8D;fontColor=#143642;fillColor=#FAE5C7;" vertex="1" connectable="0" parent="_VZ59ulktlH3t3TgStL4-82">
          <mxGeometry x="-0.5441" y="2" relative="1" as="geometry">
            <mxPoint as="offset" />
          </mxGeometry>
        </mxCell>
        <mxCell id="_VZ59ulktlH3t3TgStL4-84" value="" style="endArrow=classic;html=1;rounded=0;entryX=0.003;entryY=0.403;entryDx=0;entryDy=0;entryPerimeter=0;labelBackgroundColor=none;strokeColor=#A8201A;fontColor=default;" edge="1" parent="1">
          <mxGeometry width="50" height="50" relative="1" as="geometry">
            <mxPoint x="849.18" y="498" as="sourcePoint" />
            <mxPoint x="935.0020000000001" y="498.1890000000001" as="targetPoint" />
          </mxGeometry>
        </mxCell>
        <mxCell id="_VZ59ulktlH3t3TgStL4-85" value="" style="endArrow=classic;html=1;rounded=0;entryX=0.003;entryY=0.403;entryDx=0;entryDy=0;entryPerimeter=0;labelBackgroundColor=none;strokeColor=#A8201A;fontColor=default;" edge="1" parent="1">
          <mxGeometry width="50" height="50" relative="1" as="geometry">
            <mxPoint x="849.18" y="547.83" as="sourcePoint" />
            <mxPoint x="935.0020000000001" y="548.0190000000001" as="targetPoint" />
          </mxGeometry>
        </mxCell>
        <mxCell id="_VZ59ulktlH3t3TgStL4-86" value="" style="endArrow=none;html=1;rounded=0;strokeColor=#A8201A;fontColor=#143642;fillColor=#FAE5C7;" edge="1" parent="1">
          <mxGeometry width="50" height="50" relative="1" as="geometry">
            <mxPoint x="776" y="522" as="sourcePoint" />
            <mxPoint x="850" y="498" as="targetPoint" />
            <Array as="points">
              <mxPoint x="776" y="497" />
            </Array>
          </mxGeometry>
        </mxCell>
        <mxCell id="_VZ59ulktlH3t3TgStL4-87" value="" style="endArrow=none;html=1;rounded=0;strokeColor=#A8201A;fontColor=#143642;fillColor=#FAE5C7;" edge="1" parent="1">
          <mxGeometry width="50" height="50" relative="1" as="geometry">
            <mxPoint x="776" y="522" as="sourcePoint" />
            <mxPoint x="850" y="548" as="targetPoint" />
            <Array as="points">
              <mxPoint x="776" y="547" />
            </Array>
          </mxGeometry>
        </mxCell>
        <mxCell id="_VZ59ulktlH3t3TgStL4-88" value="" style="endArrow=none;html=1;rounded=0;strokeColor=#A8201A;fontColor=#143642;curved=1;fillColor=#FAE5C7;edgeStyle=orthogonalEdgeStyle;" edge="1" parent="1">
          <mxGeometry width="50" height="50" relative="1" as="geometry">
            <mxPoint x="667" y="443" as="sourcePoint" />
            <mxPoint x="697" y="443" as="targetPoint" />
            <Array as="points">
              <mxPoint x="673" y="443" />
              <mxPoint x="673" y="433" />
              <mxPoint x="682" y="433" />
              <mxPoint x="682" y="443" />
            </Array>
          </mxGeometry>
        </mxCell>
        <mxCell id="_VZ59ulktlH3t3TgStL4-89" value="" style="endArrow=none;html=1;rounded=0;strokeColor=#A8201A;fontColor=#143642;curved=1;fillColor=#FAE5C7;edgeStyle=orthogonalEdgeStyle;" edge="1" parent="1">
          <mxGeometry width="50" height="50" relative="1" as="geometry">
            <mxPoint x="641" y="443" as="sourcePoint" />
            <mxPoint x="668" y="443" as="targetPoint" />
            <Array as="points">
              <mxPoint x="654.5" y="443" />
              <mxPoint x="654.5" y="433" />
              <mxPoint x="663.5" y="433" />
              <mxPoint x="663.5" y="443" />
            </Array>
          </mxGeometry>
        </mxCell>
        <mxCell id="_VZ59ulktlH3t3TgStL4-90" value="" style="endArrow=classic;html=1;rounded=0;labelBackgroundColor=none;strokeColor=#A8201A;fontColor=default;" edge="1" parent="1">
          <mxGeometry width="50" height="50" relative="1" as="geometry">
            <mxPoint x="1093" y="466.5" as="sourcePoint" />
            <mxPoint x="1093" y="442" as="targetPoint" />
          </mxGeometry>
        </mxCell>
        <mxCell id="_VZ59ulktlH3t3TgStL4-91" value="" style="endArrow=none;html=1;rounded=0;strokeColor=#A8201A;fontColor=#143642;curved=1;fillColor=#FAE5C7;" edge="1" parent="1">
          <mxGeometry width="50" height="50" relative="1" as="geometry">
            <mxPoint x="695" y="443" as="sourcePoint" />
            <mxPoint x="1093" y="443" as="targetPoint" />
          </mxGeometry>
        </mxCell>
        <mxCell id="_VZ59ulktlH3t3TgStL4-164" value="n11" style="edgeLabel;html=1;align=center;verticalAlign=middle;resizable=0;points=[];strokeColor=#0F8B8D;fontColor=#143642;fillColor=#FAE5C7;" vertex="1" connectable="0" parent="_VZ59ulktlH3t3TgStL4-91">
          <mxGeometry x="-0.0055" relative="1" as="geometry">
            <mxPoint as="offset" />
          </mxGeometry>
        </mxCell>
        <mxCell id="_VZ59ulktlH3t3TgStL4-92" value="" style="endArrow=none;html=1;rounded=0;strokeColor=#A8201A;fontColor=#143642;fillColor=#FAE5C7;" edge="1" parent="1">
          <mxGeometry width="50" height="50" relative="1" as="geometry">
            <mxPoint x="641" y="443" as="sourcePoint" />
            <mxPoint x="545" y="299" as="targetPoint" />
            <Array as="points">
              <mxPoint x="546" y="442" />
            </Array>
          </mxGeometry>
        </mxCell>
        <mxCell id="_VZ59ulktlH3t3TgStL4-93" value="" style="endArrow=none;html=1;rounded=0;strokeColor=#A8201A;fontColor=#143642;curved=1;fillColor=#FAE5C7;edgeStyle=orthogonalEdgeStyle;" edge="1" parent="1">
          <mxGeometry width="50" height="50" relative="1" as="geometry">
            <mxPoint x="438" y="498" as="sourcePoint" />
            <mxPoint x="438" y="478" as="targetPoint" />
            <Array as="points">
              <mxPoint x="438" y="492" />
              <mxPoint x="445" y="492" />
              <mxPoint x="445" y="483" />
              <mxPoint x="438" y="483" />
            </Array>
          </mxGeometry>
        </mxCell>
        <mxCell id="_VZ59ulktlH3t3TgStL4-94" value="" style="endArrow=none;html=1;rounded=0;strokeColor=#A8201A;fontColor=#143642;curved=1;fillColor=#FAE5C7;edgeStyle=orthogonalEdgeStyle;" edge="1" parent="1">
          <mxGeometry width="50" height="50" relative="1" as="geometry">
            <mxPoint x="438" y="541" as="sourcePoint" />
            <mxPoint x="438" y="521" as="targetPoint" />
            <Array as="points">
              <mxPoint x="438" y="535" />
              <mxPoint x="445" y="535" />
              <mxPoint x="445" y="526" />
              <mxPoint x="438" y="526" />
            </Array>
          </mxGeometry>
        </mxCell>
        <mxCell id="_VZ59ulktlH3t3TgStL4-95" value="" style="endArrow=none;html=1;rounded=0;strokeColor=#A8201A;fontColor=#143642;fillColor=#FAE5C7;" edge="1" parent="1">
          <mxGeometry width="50" height="50" relative="1" as="geometry">
            <mxPoint x="399" y="548" as="sourcePoint" />
            <mxPoint x="438" y="540" as="targetPoint" />
            <Array as="points">
              <mxPoint x="438" y="548" />
            </Array>
          </mxGeometry>
        </mxCell>
        <mxCell id="_VZ59ulktlH3t3TgStL4-96" value="" style="endArrow=none;html=1;rounded=0;strokeColor=#A8201A;fontColor=#143642;curved=1;fillColor=#FAE5C7;" edge="1" parent="1">
          <mxGeometry width="50" height="50" relative="1" as="geometry">
            <mxPoint x="438" y="521" as="sourcePoint" />
            <mxPoint x="438" y="497" as="targetPoint" />
          </mxGeometry>
        </mxCell>
        <mxCell id="_VZ59ulktlH3t3TgStL4-97" value="" style="endArrow=none;html=1;rounded=0;strokeColor=#A8201A;fontColor=#143642;fillColor=#FAE5C7;" edge="1" parent="1">
          <mxGeometry width="50" height="50" relative="1" as="geometry">
            <mxPoint x="438" y="478" as="sourcePoint" />
            <mxPoint x="548" y="263" as="targetPoint" />
            <Array as="points">
              <mxPoint x="440" y="262" />
            </Array>
          </mxGeometry>
        </mxCell>
        <mxCell id="_VZ59ulktlH3t3TgStL4-158" value="n5" style="edgeLabel;html=1;align=center;verticalAlign=middle;resizable=0;points=[];strokeColor=#0F8B8D;fontColor=#143642;fillColor=#FAE5C7;" vertex="1" connectable="0" parent="_VZ59ulktlH3t3TgStL4-97">
          <mxGeometry x="-0.6132" y="-1" relative="1" as="geometry">
            <mxPoint as="offset" />
          </mxGeometry>
        </mxCell>
        <mxCell id="_VZ59ulktlH3t3TgStL4-98" value="" style="endArrow=none;html=1;rounded=0;strokeColor=#A8201A;fontColor=#143642;curved=1;fillColor=#FAE5C7;edgeStyle=orthogonalEdgeStyle;" edge="1" parent="1">
          <mxGeometry width="50" height="50" relative="1" as="geometry">
            <mxPoint x="410" y="498" as="sourcePoint" />
            <mxPoint x="410" y="478" as="targetPoint" />
            <Array as="points">
              <mxPoint x="410" y="492" />
              <mxPoint x="417" y="492" />
              <mxPoint x="417" y="483" />
              <mxPoint x="410" y="483" />
            </Array>
          </mxGeometry>
        </mxCell>
        <mxCell id="_VZ59ulktlH3t3TgStL4-99" value="" style="endArrow=none;html=1;rounded=0;strokeColor=#A8201A;fontColor=#143642;curved=1;fillColor=#FAE5C7;edgeStyle=orthogonalEdgeStyle;" edge="1" parent="1">
          <mxGeometry width="50" height="50" relative="1" as="geometry">
            <mxPoint x="410" y="466.5" as="sourcePoint" />
            <mxPoint x="410" y="446.5" as="targetPoint" />
            <Array as="points">
              <mxPoint x="410" y="460.5" />
              <mxPoint x="417" y="460.5" />
              <mxPoint x="417" y="451.5" />
              <mxPoint x="410" y="451.5" />
            </Array>
          </mxGeometry>
        </mxCell>
        <mxCell id="_VZ59ulktlH3t3TgStL4-100" value="" style="endArrow=none;html=1;rounded=0;strokeColor=#A8201A;fontColor=#143642;fillColor=#FAE5C7;" edge="1" parent="1">
          <mxGeometry width="50" height="50" relative="1" as="geometry">
            <mxPoint x="399" y="508" as="sourcePoint" />
            <mxPoint x="410" y="498" as="targetPoint" />
            <Array as="points">
              <mxPoint x="410" y="508" />
            </Array>
          </mxGeometry>
        </mxCell>
        <mxCell id="_VZ59ulktlH3t3TgStL4-101" value="" style="endArrow=none;html=1;rounded=0;strokeColor=#A8201A;fontColor=#143642;curved=1;fillColor=#FAE5C7;" edge="1" parent="1">
          <mxGeometry width="50" height="50" relative="1" as="geometry">
            <mxPoint x="410" y="478" as="sourcePoint" />
            <mxPoint x="410" y="466" as="targetPoint" />
          </mxGeometry>
        </mxCell>
        <mxCell id="_VZ59ulktlH3t3TgStL4-102" value="" style="endArrow=none;html=1;rounded=0;strokeColor=#A8201A;fontColor=#143642;curved=1;fillColor=#FAE5C7;" edge="1" parent="1">
          <mxGeometry width="50" height="50" relative="1" as="geometry">
            <mxPoint x="456" y="203" as="sourcePoint" />
            <mxPoint x="545" y="203" as="targetPoint" />
          </mxGeometry>
        </mxCell>
        <mxCell id="_VZ59ulktlH3t3TgStL4-103" value="" style="endArrow=none;html=1;rounded=0;strokeColor=#A8201A;fontColor=#143642;curved=1;fillColor=#FAE5C7;edgeStyle=orthogonalEdgeStyle;" edge="1" parent="1">
          <mxGeometry width="50" height="50" relative="1" as="geometry">
            <mxPoint x="412" y="203" as="sourcePoint" />
            <mxPoint x="439" y="202.98" as="targetPoint" />
            <Array as="points">
              <mxPoint x="425.5" y="202.98" />
              <mxPoint x="425.5" y="192.98" />
              <mxPoint x="434.5" y="192.98" />
              <mxPoint x="434.5" y="202.98" />
            </Array>
          </mxGeometry>
        </mxCell>
        <mxCell id="_VZ59ulktlH3t3TgStL4-104" value="" style="endArrow=none;html=1;rounded=0;strokeColor=#A8201A;fontColor=#143642;curved=1;fillColor=#FAE5C7;" edge="1" parent="1">
          <mxGeometry width="50" height="50" relative="1" as="geometry">
            <mxPoint x="438" y="203" as="sourcePoint" />
            <mxPoint x="456" y="203" as="targetPoint" />
          </mxGeometry>
        </mxCell>
        <mxCell id="_VZ59ulktlH3t3TgStL4-105" value="" style="endArrow=none;html=1;rounded=0;strokeColor=#A8201A;fontColor=#143642;curved=1;fillColor=#FAE5C7;" edge="1" parent="1">
          <mxGeometry width="50" height="50" relative="1" as="geometry">
            <mxPoint x="410" y="448" as="sourcePoint" />
            <mxPoint x="412" y="203" as="targetPoint" />
          </mxGeometry>
        </mxCell>
        <mxCell id="_VZ59ulktlH3t3TgStL4-156" value="n3" style="edgeLabel;html=1;align=center;verticalAlign=middle;resizable=0;points=[];strokeColor=#0F8B8D;fontColor=#143642;fillColor=#FAE5C7;" vertex="1" connectable="0" parent="_VZ59ulktlH3t3TgStL4-105">
          <mxGeometry x="0.0348" relative="1" as="geometry">
            <mxPoint as="offset" />
          </mxGeometry>
        </mxCell>
        <mxCell id="_VZ59ulktlH3t3TgStL4-106" value="" style="endArrow=none;html=1;rounded=0;strokeColor=#A8201A;fontColor=#143642;curved=1;fillColor=#FAE5C7;edgeStyle=orthogonalEdgeStyle;" edge="1" parent="1">
          <mxGeometry width="50" height="50" relative="1" as="geometry">
            <mxPoint x="457" y="541" as="sourcePoint" />
            <mxPoint x="457" y="521" as="targetPoint" />
            <Array as="points">
              <mxPoint x="457" y="535" />
              <mxPoint x="464" y="535" />
              <mxPoint x="464" y="526" />
              <mxPoint x="457" y="526" />
            </Array>
          </mxGeometry>
        </mxCell>
        <mxCell id="_VZ59ulktlH3t3TgStL4-107" value="" style="endArrow=none;html=1;rounded=0;strokeColor=#A8201A;fontColor=#143642;curved=1;fillColor=#FAE5C7;edgeStyle=orthogonalEdgeStyle;" edge="1" parent="1">
          <mxGeometry width="50" height="50" relative="1" as="geometry">
            <mxPoint x="480" y="541" as="sourcePoint" />
            <mxPoint x="480" y="521" as="targetPoint" />
            <Array as="points">
              <mxPoint x="480" y="535" />
              <mxPoint x="487" y="535" />
              <mxPoint x="487" y="526" />
              <mxPoint x="480" y="526" />
            </Array>
          </mxGeometry>
        </mxCell>
        <mxCell id="_VZ59ulktlH3t3TgStL4-108" value="" style="endArrow=none;html=1;rounded=0;strokeColor=#A8201A;fontColor=#143642;fillColor=#FAE5C7;" edge="1" parent="1">
          <mxGeometry width="50" height="50" relative="1" as="geometry">
            <mxPoint x="399" y="569" as="sourcePoint" />
            <mxPoint x="457" y="541" as="targetPoint" />
            <Array as="points">
              <mxPoint x="457" y="569" />
            </Array>
          </mxGeometry>
        </mxCell>
        <mxCell id="_VZ59ulktlH3t3TgStL4-109" value="" style="endArrow=none;html=1;rounded=0;strokeColor=#A8201A;fontColor=#143642;curved=1;fillColor=#FAE5C7;edgeStyle=orthogonalEdgeStyle;" edge="1" parent="1">
          <mxGeometry width="50" height="50" relative="1" as="geometry">
            <mxPoint x="457" y="501" as="sourcePoint" />
            <mxPoint x="457" y="481" as="targetPoint" />
            <Array as="points">
              <mxPoint x="457" y="495" />
              <mxPoint x="464" y="495" />
              <mxPoint x="464" y="486" />
              <mxPoint x="457" y="486" />
            </Array>
          </mxGeometry>
        </mxCell>
        <mxCell id="_VZ59ulktlH3t3TgStL4-110" value="" style="endArrow=none;html=1;rounded=0;strokeColor=#A8201A;fontColor=#143642;curved=1;fillColor=#FAE5C7;" edge="1" parent="1">
          <mxGeometry width="50" height="50" relative="1" as="geometry">
            <mxPoint x="457" y="521" as="sourcePoint" />
            <mxPoint x="457" y="501" as="targetPoint" />
          </mxGeometry>
        </mxCell>
        <mxCell id="_VZ59ulktlH3t3TgStL4-111" value="" style="endArrow=none;html=1;rounded=0;strokeColor=#A8201A;fontColor=#143642;fillColor=#FAE5C7;" edge="1" parent="1">
          <mxGeometry width="50" height="50" relative="1" as="geometry">
            <mxPoint x="398" y="587" as="sourcePoint" />
            <mxPoint x="480" y="541" as="targetPoint" />
            <Array as="points">
              <mxPoint x="480" y="587" />
            </Array>
          </mxGeometry>
        </mxCell>
        <mxCell id="_VZ59ulktlH3t3TgStL4-112" value="" style="endArrow=none;html=1;rounded=0;strokeColor=#A8201A;fontColor=#143642;curved=1;fillColor=#FAE5C7;" edge="1" parent="1">
          <mxGeometry width="50" height="50" relative="1" as="geometry">
            <mxPoint x="480" y="521" as="sourcePoint" />
            <mxPoint x="480" y="501" as="targetPoint" />
          </mxGeometry>
        </mxCell>
        <mxCell id="_VZ59ulktlH3t3TgStL4-113" value="" style="endArrow=none;html=1;rounded=0;strokeColor=#A8201A;fontColor=#143642;curved=1;fillColor=#FAE5C7;edgeStyle=orthogonalEdgeStyle;" edge="1" parent="1">
          <mxGeometry width="50" height="50" relative="1" as="geometry">
            <mxPoint x="480" y="501" as="sourcePoint" />
            <mxPoint x="480" y="481" as="targetPoint" />
            <Array as="points">
              <mxPoint x="480" y="495" />
              <mxPoint x="487" y="495" />
              <mxPoint x="487" y="486" />
              <mxPoint x="480" y="486" />
            </Array>
          </mxGeometry>
        </mxCell>
        <mxCell id="_VZ59ulktlH3t3TgStL4-114" value="" style="endArrow=none;html=1;rounded=0;strokeColor=#A8201A;fontColor=#143642;curved=1;fillColor=#FAE5C7;edgeStyle=orthogonalEdgeStyle;" edge="1" parent="1">
          <mxGeometry width="50" height="50" relative="1" as="geometry">
            <mxPoint x="459" y="275" as="sourcePoint" />
            <mxPoint x="459" y="255" as="targetPoint" />
            <Array as="points">
              <mxPoint x="459" y="269" />
              <mxPoint x="466" y="269" />
              <mxPoint x="466" y="260" />
              <mxPoint x="459" y="260" />
            </Array>
          </mxGeometry>
        </mxCell>
        <mxCell id="_VZ59ulktlH3t3TgStL4-115" value="" style="endArrow=none;html=1;rounded=0;strokeColor=#A8201A;fontColor=#143642;curved=1;fillColor=#FAE5C7;" edge="1" parent="1">
          <mxGeometry width="50" height="50" relative="1" as="geometry">
            <mxPoint x="457" y="482" as="sourcePoint" />
            <mxPoint x="459" y="275" as="targetPoint" />
          </mxGeometry>
        </mxCell>
        <mxCell id="_VZ59ulktlH3t3TgStL4-159" value="n6" style="edgeLabel;html=1;align=center;verticalAlign=middle;resizable=0;points=[];strokeColor=#0F8B8D;fontColor=#143642;fillColor=#FAE5C7;" vertex="1" connectable="0" parent="_VZ59ulktlH3t3TgStL4-115">
          <mxGeometry x="-0.6971" relative="1" as="geometry">
            <mxPoint as="offset" />
          </mxGeometry>
        </mxCell>
        <mxCell id="_VZ59ulktlH3t3TgStL4-116" value="" style="endArrow=none;html=1;rounded=0;strokeColor=#A8201A;fontColor=#143642;fillColor=#FAE5C7;" edge="1" parent="1">
          <mxGeometry width="50" height="50" relative="1" as="geometry">
            <mxPoint x="459" y="255" as="sourcePoint" />
            <mxPoint x="544" y="243" as="targetPoint" />
            <Array as="points">
              <mxPoint x="459" y="243" />
            </Array>
          </mxGeometry>
        </mxCell>
        <mxCell id="_VZ59ulktlH3t3TgStL4-117" value="" style="endArrow=none;html=1;rounded=0;strokeColor=#A8201A;fontColor=#143642;curved=1;fillColor=#FAE5C7;edgeStyle=orthogonalEdgeStyle;" edge="1" parent="1">
          <mxGeometry width="50" height="50" relative="1" as="geometry">
            <mxPoint x="482" y="276" as="sourcePoint" />
            <mxPoint x="482" y="256" as="targetPoint" />
            <Array as="points">
              <mxPoint x="482" y="270" />
              <mxPoint x="489" y="270" />
              <mxPoint x="489" y="261" />
              <mxPoint x="482" y="261" />
            </Array>
          </mxGeometry>
        </mxCell>
        <mxCell id="_VZ59ulktlH3t3TgStL4-118" value="" style="endArrow=none;html=1;rounded=0;strokeColor=#A8201A;fontColor=#143642;curved=1;fillColor=#FAE5C7;" edge="1" parent="1">
          <mxGeometry width="50" height="50" relative="1" as="geometry">
            <mxPoint x="480" y="482" as="sourcePoint" />
            <mxPoint x="482" y="274" as="targetPoint" />
          </mxGeometry>
        </mxCell>
        <mxCell id="_VZ59ulktlH3t3TgStL4-155" value="n7" style="edgeLabel;html=1;align=center;verticalAlign=middle;resizable=0;points=[];strokeColor=#0F8B8D;fontColor=#143642;fillColor=#FAE5C7;" vertex="1" connectable="0" parent="_VZ59ulktlH3t3TgStL4-118">
          <mxGeometry x="0.0027" y="1" relative="1" as="geometry">
            <mxPoint as="offset" />
          </mxGeometry>
        </mxCell>
        <mxCell id="_VZ59ulktlH3t3TgStL4-119" value="" style="endArrow=none;html=1;rounded=0;strokeColor=#A8201A;fontColor=#143642;curved=1;fillColor=#FAE5C7;edgeStyle=orthogonalEdgeStyle;" edge="1" parent="1">
          <mxGeometry width="50" height="50" relative="1" as="geometry">
            <mxPoint x="482" y="256" as="sourcePoint" />
            <mxPoint x="482" y="236" as="targetPoint" />
            <Array as="points">
              <mxPoint x="482" y="250" />
              <mxPoint x="489" y="250" />
              <mxPoint x="489" y="241" />
              <mxPoint x="482" y="241" />
            </Array>
          </mxGeometry>
        </mxCell>
        <mxCell id="_VZ59ulktlH3t3TgStL4-120" value="" style="endArrow=none;html=1;rounded=0;strokeColor=#A8201A;fontColor=#143642;fillColor=#FAE5C7;" edge="1" parent="1">
          <mxGeometry width="50" height="50" relative="1" as="geometry">
            <mxPoint x="482" y="236" as="sourcePoint" />
            <mxPoint x="546" y="223" as="targetPoint" />
            <Array as="points">
              <mxPoint x="482" y="223" />
            </Array>
          </mxGeometry>
        </mxCell>
        <mxCell id="_VZ59ulktlH3t3TgStL4-121" value="" style="endArrow=none;html=1;rounded=0;strokeColor=#A8201A;fontColor=#143642;fillColor=#FAE5C7;" edge="1" parent="1">
          <mxGeometry width="50" height="50" relative="1" as="geometry">
            <mxPoint x="654" y="400" as="sourcePoint" />
            <mxPoint x="666" y="389" as="targetPoint" />
          </mxGeometry>
        </mxCell>
        <mxCell id="_VZ59ulktlH3t3TgStL4-122" value="" style="endArrow=none;html=1;rounded=0;strokeColor=#A8201A;fontColor=#143642;fillColor=#FAE5C7;" edge="1" parent="1">
          <mxGeometry width="50" height="50" relative="1" as="geometry">
            <mxPoint x="671" y="400" as="sourcePoint" />
            <mxPoint x="683" y="389" as="targetPoint" />
          </mxGeometry>
        </mxCell>
        <mxCell id="_VZ59ulktlH3t3TgStL4-123" value="" style="endArrow=none;html=1;rounded=0;strokeColor=#A8201A;fontColor=#143642;fillColor=#FAE5C7;" edge="1" parent="1">
          <mxGeometry width="50" height="50" relative="1" as="geometry">
            <mxPoint x="227" y="635" as="sourcePoint" />
            <mxPoint x="239" y="624" as="targetPoint" />
          </mxGeometry>
        </mxCell>
        <mxCell id="_VZ59ulktlH3t3TgStL4-124" value="" style="endArrow=none;html=1;rounded=0;strokeColor=#A8201A;fontColor=#143642;fillColor=#FAE5C7;" edge="1" parent="1">
          <mxGeometry width="50" height="50" relative="1" as="geometry">
            <mxPoint x="894" y="504" as="sourcePoint" />
            <mxPoint x="906" y="493" as="targetPoint" />
          </mxGeometry>
        </mxCell>
        <mxCell id="_VZ59ulktlH3t3TgStL4-125" value="" style="endArrow=none;html=1;rounded=0;strokeColor=#A8201A;fontColor=#143642;fillColor=#FAE5C7;" edge="1" parent="1">
          <mxGeometry width="50" height="50" relative="1" as="geometry">
            <mxPoint x="897" y="553.5" as="sourcePoint" />
            <mxPoint x="909" y="542.5" as="targetPoint" />
          </mxGeometry>
        </mxCell>
        <mxCell id="_VZ59ulktlH3t3TgStL4-126" value="" style="endArrow=none;html=1;rounded=0;strokeColor=#A8201A;fontColor=#143642;fillColor=#FAE5C7;" edge="1" parent="1">
          <mxGeometry width="50" height="50" relative="1" as="geometry">
            <mxPoint x="1087" y="464" as="sourcePoint" />
            <mxPoint x="1099" y="453" as="targetPoint" />
          </mxGeometry>
        </mxCell>
        <mxCell id="_VZ59ulktlH3t3TgStL4-127" value="" style="endArrow=none;html=1;rounded=0;strokeColor=#A8201A;fontColor=#143642;fillColor=#FAE5C7;" edge="1" parent="1">
          <mxGeometry width="50" height="50" relative="1" as="geometry">
            <mxPoint x="899" y="605" as="sourcePoint" />
            <mxPoint x="911" y="594" as="targetPoint" />
          </mxGeometry>
        </mxCell>
        <mxCell id="_VZ59ulktlH3t3TgStL4-128" value="&lt;font style=&quot;font-size: 10px;&quot;&gt;7&lt;/font&gt;" style="text;html=1;align=center;verticalAlign=middle;resizable=0;points=[];autosize=1;strokeColor=none;fillColor=none;fontColor=#143642;" vertex="1" parent="1">
          <mxGeometry x="887" y="475" width="24" height="26" as="geometry" />
        </mxCell>
        <mxCell id="_VZ59ulktlH3t3TgStL4-129" value="&lt;font style=&quot;font-size: 10px;&quot;&gt;3&lt;/font&gt;" style="text;html=1;align=center;verticalAlign=middle;resizable=0;points=[];autosize=1;strokeColor=none;fillColor=none;fontColor=#143642;" vertex="1" parent="1">
          <mxGeometry x="887" y="526" width="24" height="26" as="geometry" />
        </mxCell>
        <mxCell id="_VZ59ulktlH3t3TgStL4-130" value="&lt;font style=&quot;font-size: 10px;&quot;&gt;2&lt;/font&gt;" style="text;html=1;align=center;verticalAlign=middle;resizable=0;points=[];autosize=1;strokeColor=none;fillColor=none;fontColor=#143642;" vertex="1" parent="1">
          <mxGeometry x="887" y="577" width="24" height="26" as="geometry" />
        </mxCell>
        <mxCell id="_VZ59ulktlH3t3TgStL4-131" value="&lt;font style=&quot;font-size: 10px;&quot;&gt;4&lt;/font&gt;" style="text;html=1;align=center;verticalAlign=middle;resizable=0;points=[];autosize=1;strokeColor=none;fillColor=none;fontColor=#143642;" vertex="1" parent="1">
          <mxGeometry x="1098" y="443" width="24" height="26" as="geometry" />
        </mxCell>
        <mxCell id="_VZ59ulktlH3t3TgStL4-132" value="&lt;font style=&quot;font-size: 10px;&quot;&gt;7&lt;/font&gt;" style="text;html=1;align=center;verticalAlign=middle;resizable=0;points=[];autosize=1;strokeColor=none;fillColor=none;fontColor=#143642;" vertex="1" parent="1">
          <mxGeometry x="233" y="618" width="24" height="26" as="geometry" />
        </mxCell>
        <mxCell id="_VZ59ulktlH3t3TgStL4-133" value="&lt;font style=&quot;font-size: 10px;&quot;&gt;10&lt;/font&gt;" style="text;html=1;align=center;verticalAlign=middle;resizable=0;points=[];autosize=1;strokeColor=none;fillColor=none;fontColor=#143642;" vertex="1" parent="1">
          <mxGeometry x="674" y="383" width="29" height="26" as="geometry" />
        </mxCell>
        <mxCell id="_VZ59ulktlH3t3TgStL4-134" value="&lt;font style=&quot;font-size: 10px;&quot;&gt;7&lt;/font&gt;" style="text;html=1;align=center;verticalAlign=middle;resizable=0;points=[];autosize=1;strokeColor=none;fillColor=none;fontColor=#143642;" vertex="1" parent="1">
          <mxGeometry x="628.5" y="383" width="24" height="26" as="geometry" />
        </mxCell>
        <mxCell id="_VZ59ulktlH3t3TgStL4-136" value="&lt;font style=&quot;font-size: 10px;&quot;&gt;instruction&lt;/font&gt;" style="text;html=1;align=center;verticalAlign=middle;resizable=0;points=[];autosize=1;strokeColor=none;fillColor=none;fontColor=#143642;" vertex="1" parent="1">
          <mxGeometry x="200" y="582" width="64" height="26" as="geometry" />
        </mxCell>
        <mxCell id="_VZ59ulktlH3t3TgStL4-137" value="&lt;font style=&quot;font-size: 10px;&quot;&gt;inst_control&lt;/font&gt;" style="text;html=1;align=center;verticalAlign=middle;resizable=0;points=[];autosize=1;strokeColor=none;fillColor=none;fontColor=#143642;rotation=-90;" vertex="1" parent="1">
          <mxGeometry x="626.5" y="343" width="69" height="26" as="geometry" />
        </mxCell>
        <mxCell id="_VZ59ulktlH3t3TgStL4-138" value="&lt;font style=&quot;font-size: 10px;&quot;&gt;inst_alu&lt;/font&gt;" style="text;html=1;align=center;verticalAlign=middle;resizable=0;points=[];autosize=1;strokeColor=none;fillColor=none;fontColor=#143642;rotation=-90;" vertex="1" parent="1">
          <mxGeometry x="651" y="351" width="52" height="26" as="geometry" />
        </mxCell>
        <mxCell id="_VZ59ulktlH3t3TgStL4-139" value="&lt;font style=&quot;font-size: 10px;&quot;&gt;zero_flag&lt;/font&gt;" style="text;html=1;align=center;verticalAlign=middle;resizable=0;points=[];autosize=1;strokeColor=none;fillColor=none;fontColor=#143642;rotation=-90;" vertex="1" parent="1">
          <mxGeometry x="708" y="348" width="59" height="26" as="geometry" />
        </mxCell>
        <mxCell id="_VZ59ulktlH3t3TgStL4-140" value="&lt;font style=&quot;font-size: 10px;&quot;&gt;ALUOp&lt;/font&gt;" style="text;html=1;align=center;verticalAlign=middle;resizable=0;points=[];autosize=1;strokeColor=none;fillColor=none;fontColor=#143642;" vertex="1" parent="1">
          <mxGeometry x="931" y="586" width="51" height="26" as="geometry" />
        </mxCell>
        <mxCell id="_VZ59ulktlH3t3TgStL4-141" value="&lt;span style=&quot;font-size: 10px;&quot;&gt;inst_Func7&lt;/span&gt;" style="text;html=1;align=center;verticalAlign=middle;resizable=0;points=[];autosize=1;strokeColor=none;fillColor=none;fontColor=#143642;" vertex="1" parent="1">
          <mxGeometry x="931" y="485" width="67" height="26" as="geometry" />
        </mxCell>
        <mxCell id="_VZ59ulktlH3t3TgStL4-142" value="&lt;font style=&quot;font-size: 10px;&quot;&gt;inst_Func3&lt;/font&gt;" style="text;html=1;align=center;verticalAlign=middle;resizable=0;points=[];autosize=1;strokeColor=none;fillColor=none;fontColor=#143642;" vertex="1" parent="1">
          <mxGeometry x="931" y="535" width="67" height="26" as="geometry" />
        </mxCell>
        <mxCell id="_VZ59ulktlH3t3TgStL4-143" value="&lt;font style=&quot;font-size: 10px;&quot;&gt;operation&lt;/font&gt;" style="text;html=1;align=center;verticalAlign=middle;resizable=0;points=[];autosize=1;strokeColor=none;fillColor=none;fontColor=#143642;rotation=90;" vertex="1" parent="1">
          <mxGeometry x="1065" y="480" width="60" height="26" as="geometry" />
        </mxCell>
        <mxCell id="_VZ59ulktlH3t3TgStL4-144" value="&lt;font style=&quot;font-size: 18px;&quot;&gt;Datapath&lt;/font&gt;" style="text;html=1;align=center;verticalAlign=middle;resizable=0;points=[];autosize=1;strokeColor=none;fillColor=none;fontColor=#143642;" vertex="1" parent="1">
          <mxGeometry x="726" y="93" width="91" height="34" as="geometry" />
        </mxCell>
        <mxCell id="_VZ59ulktlH3t3TgStL4-145" value="&lt;font style=&quot;font-size: 18px;&quot;&gt;controller&lt;/font&gt;" style="text;html=1;align=center;verticalAlign=middle;resizable=0;points=[];autosize=1;strokeColor=none;fillColor=none;fontColor=#143642;" vertex="1" parent="1">
          <mxGeometry x="158" y="501" width="92" height="34" as="geometry" />
        </mxCell>
        <mxCell id="_VZ59ulktlH3t3TgStL4-146" value="&lt;font style=&quot;font-size: 18px;&quot;&gt;ALU_controller&lt;/font&gt;" style="text;html=1;align=center;verticalAlign=middle;resizable=0;points=[];autosize=1;strokeColor=none;fillColor=none;fontColor=#143642;" vertex="1" parent="1">
          <mxGeometry x="1049" y="570" width="137" height="34" as="geometry" />
        </mxCell>
        <mxCell id="Ez1PM-Bdg6cZujaJsxbP-1" value="&lt;font style=&quot;font-size: 18px;&quot;&gt;processor&lt;/font&gt;" style="text;html=1;align=center;verticalAlign=middle;resizable=0;points=[];autosize=1;strokeColor=none;fillColor=none;fontColor=#143642;" vertex="1" parent="1">
          <mxGeometry x="689" y="202" width="97" height="34" as="geometry" />
        </mxCell>
        <mxCell id="Ez1PM-Bdg6cZujaJsxbP-2" value="&lt;font style=&quot;font-size: 18px;&quot;&gt;Control&lt;/font&gt;" style="text;html=1;align=center;verticalAlign=middle;resizable=0;points=[];autosize=1;strokeColor=none;fillColor=none;fontColor=#143642;" vertex="1" parent="1">
          <mxGeometry x="138" y="409" width="76" height="34" as="geometry" />
        </mxCell>
        <mxCell id="Ez1PM-Bdg6cZujaJsxbP-3" value="&lt;font style=&quot;font-size: 18px;&quot;&gt;ALUControl&lt;/font&gt;" style="text;html=1;align=center;verticalAlign=middle;resizable=0;points=[];autosize=1;strokeColor=none;fillColor=none;fontColor=#143642;" vertex="1" parent="1">
          <mxGeometry x="1109" y="627" width="111" height="34" as="geometry" />
        </mxCell>
        <mxCell id="PhYWb1s_RIzvPVwD1Q3f-1" value="&lt;span style=&quot;font-size: 18px;&quot;&gt;SingleCycleProc&lt;/span&gt;" style="text;html=1;align=center;verticalAlign=middle;resizable=0;points=[];autosize=1;strokeColor=none;fillColor=none;fontColor=#5AA9E6;" vertex="1" parent="1">
          <mxGeometry x="8" y="8" width="150" height="34" as="geometry" />
        </mxCell>
      </root>
    </mxGraphModel>
  </diagram>
  <diagram id="7SXi_6Co9GTSxSLjcpUJ" name="Page-2">
    <mxGraphModel dx="1469" dy="799" grid="0" gridSize="10" guides="1" tooltips="1" connect="1" arrows="1" fold="1" page="1" pageScale="1" pageWidth="1400" pageHeight="850" math="0" shadow="0">
      <root>
        <mxCell id="0" />
        <mxCell id="1" parent="0" />
        <mxCell id="jL5XeLewd3YdgeP9bp_T-5" style="edgeStyle=orthogonalEdgeStyle;rounded=0;orthogonalLoop=1;jettySize=auto;html=1;exitX=1;exitY=0.5;exitDx=0;exitDy=0;entryX=0;entryY=0.75;entryDx=0;entryDy=0;strokeColor=#FF6392;fontColor=#5AA9E6;fillColor=#FFE45E;" parent="1" source="F5jFRrXpI0L9LgiIzDs1-1" target="jL5XeLewd3YdgeP9bp_T-3" edge="1">
          <mxGeometry relative="1" as="geometry" />
        </mxCell>
        <mxCell id="Bo9uxjZNozG0tCEq4NQd-40" value="&lt;font style=&quot;font-size: 9px;&quot;&gt;out_add&lt;/font&gt;" style="edgeLabel;html=1;align=center;verticalAlign=middle;resizable=0;points=[];strokeColor=#FF6392;fontColor=#5AA9E6;fillColor=#FFE45E;" parent="jL5XeLewd3YdgeP9bp_T-5" vertex="1" connectable="0">
          <mxGeometry x="-0.1937" y="-1" relative="1" as="geometry">
            <mxPoint x="17" y="-1" as="offset" />
          </mxGeometry>
        </mxCell>
        <mxCell id="Bo9uxjZNozG0tCEq4NQd-34" style="edgeStyle=orthogonalEdgeStyle;rounded=0;orthogonalLoop=1;jettySize=auto;html=1;exitX=0;exitY=0.75;exitDx=0;exitDy=0;strokeColor=#FF6392;fontColor=#5AA9E6;fillColor=#FFE45E;entryX=0;entryY=0.75;entryDx=0;entryDy=0;" parent="1" target="F5jFRrXpI0L9LgiIzDs1-1" edge="1">
          <mxGeometry relative="1" as="geometry">
            <mxPoint x="36.66664123535156" y="510" as="sourcePoint" />
          </mxGeometry>
        </mxCell>
        <mxCell id="F5jFRrXpI0L9LgiIzDs1-1" value="" style="rounded=0;whiteSpace=wrap;html=1;strokeColor=#FF6392;fontColor=#5AA9E6;fillColor=#FFE45E;labelBackgroundColor=none;" parent="1" vertex="1">
          <mxGeometry x="107" y="436" width="29" height="100" as="geometry" />
        </mxCell>
        <mxCell id="jL5XeLewd3YdgeP9bp_T-1" value="" style="endArrow=none;html=1;rounded=0;strokeColor=#FF6392;fontColor=#5AA9E6;fillColor=#FFE45E;exitX=0.25;exitY=0;exitDx=0;exitDy=0;entryX=0.75;entryY=0;entryDx=0;entryDy=0;" parent="1" source="F5jFRrXpI0L9LgiIzDs1-1" target="F5jFRrXpI0L9LgiIzDs1-1" edge="1">
          <mxGeometry width="50" height="50" relative="1" as="geometry">
            <mxPoint x="152" y="457" as="sourcePoint" />
            <mxPoint x="202" y="407" as="targetPoint" />
            <Array as="points">
              <mxPoint x="121" y="445" />
            </Array>
          </mxGeometry>
        </mxCell>
        <mxCell id="jL5XeLewd3YdgeP9bp_T-2" value="" style="endArrow=classic;html=1;rounded=0;strokeColor=#FF6392;fontColor=#5AA9E6;fillColor=#FFE45E;entryX=0.5;entryY=0;entryDx=0;entryDy=0;" parent="1" target="F5jFRrXpI0L9LgiIzDs1-1" edge="1">
          <mxGeometry width="50" height="50" relative="1" as="geometry">
            <mxPoint x="122" y="409" as="sourcePoint" />
            <mxPoint x="121" y="435" as="targetPoint" />
          </mxGeometry>
        </mxCell>
        <mxCell id="jL5XeLewd3YdgeP9bp_T-11" style="edgeStyle=orthogonalEdgeStyle;rounded=0;orthogonalLoop=1;jettySize=auto;html=1;exitX=1;exitY=0.75;exitDx=0;exitDy=0;strokeColor=#FF6392;fontColor=#5AA9E6;fillColor=#FFE45E;" parent="1" source="jL5XeLewd3YdgeP9bp_T-3" target="jL5XeLewd3YdgeP9bp_T-10" edge="1">
          <mxGeometry relative="1" as="geometry">
            <Array as="points">
              <mxPoint x="412" y="487" />
            </Array>
          </mxGeometry>
        </mxCell>
        <mxCell id="Bo9uxjZNozG0tCEq4NQd-44" value="&lt;font style=&quot;font-size: 9px;&quot;&gt;inst&lt;/font&gt;" style="edgeLabel;html=1;align=center;verticalAlign=middle;resizable=0;points=[];strokeColor=#FF6392;fontColor=#5AA9E6;fillColor=#FFE45E;" parent="jL5XeLewd3YdgeP9bp_T-11" vertex="1" connectable="0">
          <mxGeometry x="-0.5191" y="-1" relative="1" as="geometry">
            <mxPoint x="-4" y="-2" as="offset" />
          </mxGeometry>
        </mxCell>
        <mxCell id="Bo9uxjZNozG0tCEq4NQd-83" value="&lt;font style=&quot;font-size: 8px;&quot;&gt;inst[11:7]&lt;/font&gt;" style="edgeLabel;html=1;align=center;verticalAlign=middle;resizable=0;points=[];strokeColor=#FF6392;fontColor=#5AA9E6;fillColor=#FFE45E;" parent="jL5XeLewd3YdgeP9bp_T-11" vertex="1" connectable="0">
          <mxGeometry x="0.5165" y="-1" relative="1" as="geometry">
            <mxPoint x="3" y="-2" as="offset" />
          </mxGeometry>
        </mxCell>
        <mxCell id="jL5XeLewd3YdgeP9bp_T-3" value="" style="rounded=0;whiteSpace=wrap;html=1;strokeColor=#FF6392;fontColor=#5AA9E6;fillColor=#FFE45E;" parent="1" vertex="1">
          <mxGeometry x="284" y="384" width="128" height="136" as="geometry" />
        </mxCell>
        <mxCell id="jL5XeLewd3YdgeP9bp_T-8" style="edgeStyle=orthogonalEdgeStyle;rounded=0;orthogonalLoop=1;jettySize=auto;html=1;strokeColor=#FF6392;fontColor=#5AA9E6;fillColor=#FFE45E;entryX=0;entryY=0.25;entryDx=0;entryDy=0;" parent="1" target="jL5XeLewd3YdgeP9bp_T-6" edge="1">
          <mxGeometry relative="1" as="geometry">
            <mxPoint x="175" y="486" as="sourcePoint" />
            <Array as="points">
              <mxPoint x="172" y="486" />
              <mxPoint x="172" y="172" />
            </Array>
          </mxGeometry>
        </mxCell>
        <mxCell id="Bo9uxjZNozG0tCEq4NQd-52" value="&lt;font style=&quot;font-size: 9px;&quot;&gt;out_add&lt;/font&gt;" style="edgeLabel;html=1;align=center;verticalAlign=middle;resizable=0;points=[];strokeColor=#FF6392;fontColor=#5AA9E6;fillColor=#FFE45E;" parent="jL5XeLewd3YdgeP9bp_T-8" vertex="1" connectable="0">
          <mxGeometry x="-0.0894" y="1" relative="1" as="geometry">
            <mxPoint as="offset" />
          </mxGeometry>
        </mxCell>
        <mxCell id="Bo9uxjZNozG0tCEq4NQd-9" style="edgeStyle=orthogonalEdgeStyle;rounded=0;orthogonalLoop=1;jettySize=auto;html=1;exitX=1;exitY=0.25;exitDx=0;exitDy=0;entryX=1;entryY=0;entryDx=0;entryDy=0;strokeColor=#FF6392;fontColor=#5AA9E6;fillColor=#FFE45E;" parent="1" source="jL5XeLewd3YdgeP9bp_T-6" target="Bo9uxjZNozG0tCEq4NQd-7" edge="1">
          <mxGeometry relative="1" as="geometry" />
        </mxCell>
        <mxCell id="Bo9uxjZNozG0tCEq4NQd-60" value="&lt;font style=&quot;font-size: 9px;&quot;&gt;n1&lt;/font&gt;" style="edgeLabel;html=1;align=center;verticalAlign=middle;resizable=0;points=[];strokeColor=#FF6392;fontColor=#5AA9E6;fillColor=#FFE45E;" parent="Bo9uxjZNozG0tCEq4NQd-9" vertex="1" connectable="0">
          <mxGeometry x="0.0003" y="1" relative="1" as="geometry">
            <mxPoint as="offset" />
          </mxGeometry>
        </mxCell>
        <mxCell id="Bo9uxjZNozG0tCEq4NQd-45" style="edgeStyle=orthogonalEdgeStyle;rounded=0;orthogonalLoop=1;jettySize=auto;html=1;exitX=0;exitY=0.75;exitDx=0;exitDy=0;strokeColor=#FF6392;fontColor=#5AA9E6;fillColor=#FFE45E;entryX=0;entryY=0.75;entryDx=0;entryDy=0;" parent="1" target="jL5XeLewd3YdgeP9bp_T-6" edge="1">
          <mxGeometry relative="1" as="geometry">
            <mxPoint x="183.00002543131518" y="202.83333333333337" as="sourcePoint" />
          </mxGeometry>
        </mxCell>
        <mxCell id="jL5XeLewd3YdgeP9bp_T-6" value="" style="rounded=0;whiteSpace=wrap;html=1;strokeColor=#FF6392;fontColor=#5AA9E6;fillColor=#FFE45E;" parent="1" vertex="1">
          <mxGeometry x="218" y="156" width="66" height="62" as="geometry" />
        </mxCell>
        <mxCell id="jL5XeLewd3YdgeP9bp_T-12" style="edgeStyle=orthogonalEdgeStyle;rounded=0;orthogonalLoop=1;jettySize=auto;html=1;strokeColor=#FF6392;fontColor=#5AA9E6;fillColor=#FFE45E;entryX=0;entryY=0.5;entryDx=0;entryDy=0;" parent="1" target="jL5XeLewd3YdgeP9bp_T-10" edge="1">
          <mxGeometry relative="1" as="geometry">
            <mxPoint x="491" y="485" as="sourcePoint" />
            <Array as="points">
              <mxPoint x="491" y="441" />
            </Array>
          </mxGeometry>
        </mxCell>
        <mxCell id="Bo9uxjZNozG0tCEq4NQd-82" value="&lt;font style=&quot;font-size: 8px;&quot;&gt;inst[24:20]&lt;/font&gt;" style="edgeLabel;html=1;align=center;verticalAlign=middle;resizable=0;points=[];strokeColor=#FF6392;fontColor=#5AA9E6;fillColor=#FFE45E;" parent="jL5XeLewd3YdgeP9bp_T-12" vertex="1" connectable="0">
          <mxGeometry x="0.2992" relative="1" as="geometry">
            <mxPoint x="3" as="offset" />
          </mxGeometry>
        </mxCell>
        <mxCell id="jL5XeLewd3YdgeP9bp_T-13" style="edgeStyle=orthogonalEdgeStyle;rounded=0;orthogonalLoop=1;jettySize=auto;html=1;strokeColor=#FF6392;fontColor=#5AA9E6;fillColor=#FFE45E;entryX=0;entryY=0.25;entryDx=0;entryDy=0;" parent="1" target="jL5XeLewd3YdgeP9bp_T-10" edge="1">
          <mxGeometry relative="1" as="geometry">
            <mxPoint x="491" y="486" as="sourcePoint" />
            <Array as="points">
              <mxPoint x="491" y="389" />
            </Array>
          </mxGeometry>
        </mxCell>
        <mxCell id="Bo9uxjZNozG0tCEq4NQd-81" value="&lt;font style=&quot;font-size: 8px;&quot;&gt;inst[19:15]&lt;/font&gt;" style="edgeLabel;html=1;align=center;verticalAlign=middle;resizable=0;points=[];strokeColor=#FF6392;fontColor=#5AA9E6;fillColor=#FFE45E;" parent="jL5XeLewd3YdgeP9bp_T-13" vertex="1" connectable="0">
          <mxGeometry x="0.6232" y="1" relative="1" as="geometry">
            <mxPoint x="-2" as="offset" />
          </mxGeometry>
        </mxCell>
        <mxCell id="YRFwXKMN_KRgXpPXOxtY-10" style="edgeStyle=orthogonalEdgeStyle;rounded=0;orthogonalLoop=1;jettySize=auto;html=1;exitX=1;exitY=0.75;exitDx=0;exitDy=0;entryX=1;entryY=0;entryDx=0;entryDy=0;strokeColor=#FF6392;fontColor=#5AA9E6;fillColor=#FFE45E;" parent="1" source="jL5XeLewd3YdgeP9bp_T-10" target="YRFwXKMN_KRgXpPXOxtY-9" edge="1">
          <mxGeometry relative="1" as="geometry" />
        </mxCell>
        <mxCell id="Bo9uxjZNozG0tCEq4NQd-78" value="&lt;font style=&quot;font-size: 9px;&quot;&gt;rd2&lt;/font&gt;" style="edgeLabel;html=1;align=center;verticalAlign=middle;resizable=0;points=[];strokeColor=#FF6392;fontColor=#5AA9E6;fillColor=#FFE45E;" parent="YRFwXKMN_KRgXpPXOxtY-10" vertex="1" connectable="0">
          <mxGeometry x="-0.31" y="-1" relative="1" as="geometry">
            <mxPoint as="offset" />
          </mxGeometry>
        </mxCell>
        <mxCell id="YRFwXKMN_KRgXpPXOxtY-15" style="edgeStyle=orthogonalEdgeStyle;rounded=0;orthogonalLoop=1;jettySize=auto;html=1;exitX=1;exitY=0.25;exitDx=0;exitDy=0;entryX=0;entryY=0.25;entryDx=0;entryDy=0;strokeColor=#FF6392;fontColor=#5AA9E6;fillColor=#FFE45E;" parent="1" source="jL5XeLewd3YdgeP9bp_T-10" target="YRFwXKMN_KRgXpPXOxtY-13" edge="1">
          <mxGeometry relative="1" as="geometry">
            <Array as="points">
              <mxPoint x="723" y="376" />
            </Array>
          </mxGeometry>
        </mxCell>
        <mxCell id="Bo9uxjZNozG0tCEq4NQd-75" value="&lt;font style=&quot;font-size: 9px;&quot;&gt;rd1&lt;/font&gt;" style="edgeLabel;html=1;align=center;verticalAlign=middle;resizable=0;points=[];strokeColor=#FF6392;fontColor=#5AA9E6;fillColor=#FFE45E;" parent="YRFwXKMN_KRgXpPXOxtY-15" vertex="1" connectable="0">
          <mxGeometry x="0.0096" y="-2" relative="1" as="geometry">
            <mxPoint as="offset" />
          </mxGeometry>
        </mxCell>
        <mxCell id="Bo9uxjZNozG0tCEq4NQd-32" style="edgeStyle=orthogonalEdgeStyle;rounded=0;orthogonalLoop=1;jettySize=auto;html=1;exitX=0.25;exitY=0;exitDx=0;exitDy=0;strokeColor=#FF6392;fontColor=#5AA9E6;fillColor=#FFE45E;entryX=0.25;entryY=0;entryDx=0;entryDy=0;" parent="1" target="jL5XeLewd3YdgeP9bp_T-10" edge="1">
          <mxGeometry relative="1" as="geometry">
            <mxPoint x="587.2352941176471" y="299.2745217715993" as="sourcePoint" />
          </mxGeometry>
        </mxCell>
        <mxCell id="Bo9uxjZNozG0tCEq4NQd-74" value="&lt;font style=&quot;font-size: 9px;&quot;&gt;regw&lt;/font&gt;" style="edgeLabel;html=1;align=center;verticalAlign=middle;resizable=0;points=[];strokeColor=#FF6392;fontColor=#5AA9E6;fillColor=#FFE45E;" parent="Bo9uxjZNozG0tCEq4NQd-32" vertex="1" connectable="0">
          <mxGeometry x="-0.3372" relative="1" as="geometry">
            <mxPoint as="offset" />
          </mxGeometry>
        </mxCell>
        <mxCell id="jL5XeLewd3YdgeP9bp_T-10" value="" style="rounded=0;whiteSpace=wrap;html=1;strokeColor=#FF6392;fontColor=#5AA9E6;fillColor=#FFE45E;" parent="1" vertex="1">
          <mxGeometry x="542" y="337" width="181" height="208" as="geometry" />
        </mxCell>
        <mxCell id="YRFwXKMN_KRgXpPXOxtY-1" value="" style="edgeStyle=segmentEdgeStyle;endArrow=classic;html=1;curved=0;rounded=0;endSize=8;startSize=8;sourcePerimeterSpacing=0;targetPerimeterSpacing=0;strokeColor=#FF6392;fontColor=#5AA9E6;fillColor=#FFE45E;" parent="1" edge="1">
          <mxGeometry width="100" relative="1" as="geometry">
            <mxPoint x="493" y="389" as="sourcePoint" />
            <mxPoint x="545" y="273" as="targetPoint" />
            <Array as="points">
              <mxPoint x="491" y="389" />
              <mxPoint x="491" y="273" />
            </Array>
          </mxGeometry>
        </mxCell>
        <mxCell id="yiFU0oVUIUAgTVlSvjVD-18" value="&lt;font style=&quot;color: rgb(51, 153, 255);&quot;&gt;inst&lt;/font&gt;" style="edgeLabel;html=1;align=center;verticalAlign=middle;resizable=0;points=[];" vertex="1" connectable="0" parent="YRFwXKMN_KRgXpPXOxtY-1">
          <mxGeometry x="-0.3317" y="1" relative="1" as="geometry">
            <mxPoint as="offset" />
          </mxGeometry>
        </mxCell>
        <mxCell id="YRFwXKMN_KRgXpPXOxtY-2" value="" style="edgeStyle=segmentEdgeStyle;endArrow=classic;html=1;curved=0;rounded=0;endSize=8;startSize=8;sourcePerimeterSpacing=0;targetPerimeterSpacing=0;strokeColor=#FF6392;fontColor=#5AA9E6;fillColor=#FFE45E;entryX=0;entryY=0.25;entryDx=0;entryDy=0;" parent="1" target="Bo9uxjZNozG0tCEq4NQd-5" edge="1">
          <mxGeometry width="100" relative="1" as="geometry">
            <mxPoint x="173" y="237" as="sourcePoint" />
            <mxPoint x="682" y="202" as="targetPoint" />
            <Array as="points">
              <mxPoint x="305" y="237" />
              <mxPoint x="305" y="190" />
            </Array>
          </mxGeometry>
        </mxCell>
        <mxCell id="Bo9uxjZNozG0tCEq4NQd-53" value="&lt;font style=&quot;font-size: 9px;&quot;&gt;out_add&lt;/font&gt;" style="edgeLabel;html=1;align=center;verticalAlign=middle;resizable=0;points=[];strokeColor=#FF6392;fontColor=#5AA9E6;fillColor=#FFE45E;" parent="YRFwXKMN_KRgXpPXOxtY-2" vertex="1" connectable="0">
          <mxGeometry x="0.1424" y="-1" relative="1" as="geometry">
            <mxPoint x="4" y="-2" as="offset" />
          </mxGeometry>
        </mxCell>
        <mxCell id="YRFwXKMN_KRgXpPXOxtY-3" value="" style="endArrow=none;html=1;rounded=0;strokeColor=#FF6392;fontColor=#5AA9E6;fillColor=#FFE45E;exitX=0.447;exitY=0.002;exitDx=0;exitDy=0;entryX=0.554;entryY=0.004;entryDx=0;entryDy=0;exitPerimeter=0;entryPerimeter=0;" parent="1" source="jL5XeLewd3YdgeP9bp_T-10" target="jL5XeLewd3YdgeP9bp_T-10" edge="1">
          <mxGeometry width="50" height="50" relative="1" as="geometry">
            <mxPoint x="616" y="400" as="sourcePoint" />
            <mxPoint x="666" y="350" as="targetPoint" />
            <Array as="points">
              <mxPoint x="633" y="348" />
            </Array>
          </mxGeometry>
        </mxCell>
        <mxCell id="YRFwXKMN_KRgXpPXOxtY-6" style="edgeStyle=orthogonalEdgeStyle;rounded=0;orthogonalLoop=1;jettySize=auto;html=1;exitX=0.5;exitY=0;exitDx=0;exitDy=0;strokeColor=#FF6392;fontColor=#5AA9E6;fillColor=#FFE45E;entryX=0.5;entryY=0;entryDx=0;entryDy=0;" parent="1" target="YRFwXKMN_KRgXpPXOxtY-5" edge="1">
          <mxGeometry relative="1" as="geometry">
            <mxPoint x="467" y="486" as="sourcePoint" />
            <Array as="points">
              <mxPoint x="470" y="486" />
              <mxPoint x="470" y="674" />
            </Array>
          </mxGeometry>
        </mxCell>
        <mxCell id="YRFwXKMN_KRgXpPXOxtY-11" style="edgeStyle=orthogonalEdgeStyle;rounded=0;orthogonalLoop=1;jettySize=auto;html=1;exitX=0.454;exitY=0.903;exitDx=0;exitDy=0;entryX=0.5;entryY=0;entryDx=0;entryDy=0;strokeColor=#FF6392;fontColor=#5AA9E6;fillColor=#FFE45E;exitPerimeter=0;" parent="1" source="Bo9uxjZNozG0tCEq4NQd-49" edge="1">
          <mxGeometry relative="1" as="geometry">
            <mxPoint x="550" y="693.5" as="sourcePoint" />
            <mxPoint x="870" y="565" as="targetPoint" />
            <Array as="points">
              <mxPoint x="757" y="694" />
              <mxPoint x="757" y="565" />
            </Array>
          </mxGeometry>
        </mxCell>
        <mxCell id="Bo9uxjZNozG0tCEq4NQd-51" value="&lt;font style=&quot;font-size: 9px;&quot;&gt;imm&lt;/font&gt;" style="edgeLabel;html=1;align=center;verticalAlign=middle;resizable=0;points=[];strokeColor=#FF6392;fontColor=#5AA9E6;fillColor=#FFE45E;" parent="YRFwXKMN_KRgXpPXOxtY-11" vertex="1" connectable="0">
          <mxGeometry x="-0.4039" relative="1" as="geometry">
            <mxPoint as="offset" />
          </mxGeometry>
        </mxCell>
        <mxCell id="Bo9uxjZNozG0tCEq4NQd-88" value="&lt;font style=&quot;font-size: 9px;&quot;&gt;imm&lt;/font&gt;" style="edgeLabel;html=1;align=center;verticalAlign=middle;resizable=0;points=[];strokeColor=#FF6392;fontColor=#5AA9E6;fillColor=#FFE45E;" parent="YRFwXKMN_KRgXpPXOxtY-11" vertex="1" connectable="0">
          <mxGeometry x="0.6285" y="-1" relative="1" as="geometry">
            <mxPoint as="offset" />
          </mxGeometry>
        </mxCell>
        <mxCell id="YRFwXKMN_KRgXpPXOxtY-5" value="" style="ellipse;whiteSpace=wrap;html=1;strokeColor=#FF6392;fontColor=#5AA9E6;fillColor=#FFE45E;rotation=-90;" parent="1" vertex="1">
          <mxGeometry x="458" y="643" width="120" height="62" as="geometry" />
        </mxCell>
        <mxCell id="YRFwXKMN_KRgXpPXOxtY-7" value="" style="edgeStyle=none;orthogonalLoop=1;jettySize=auto;html=1;rounded=0;strokeColor=#FF6392;fontColor=#5AA9E6;fillColor=#FFE45E;" parent="1" edge="1">
          <mxGeometry width="100" relative="1" as="geometry">
            <mxPoint x="494" y="523" as="sourcePoint" />
            <mxPoint x="542" y="523" as="targetPoint" />
            <Array as="points" />
          </mxGeometry>
        </mxCell>
        <mxCell id="YRFwXKMN_KRgXpPXOxtY-8" value="" style="edgeStyle=none;orthogonalLoop=1;jettySize=auto;html=1;rounded=0;strokeColor=#FF6392;fontColor=#5AA9E6;fillColor=#FFE45E;" parent="1" edge="1">
          <mxGeometry width="100" relative="1" as="geometry">
            <mxPoint x="470" y="674" as="sourcePoint" />
            <mxPoint x="367" y="673.71" as="targetPoint" />
            <Array as="points" />
          </mxGeometry>
        </mxCell>
        <mxCell id="Bo9uxjZNozG0tCEq4NQd-138" value="&lt;font style=&quot;font-size: 9px;&quot;&gt;inst&lt;/font&gt;" style="edgeLabel;html=1;align=center;verticalAlign=middle;resizable=0;points=[];strokeColor=#FF6392;fontColor=#5AA9E6;fillColor=#FFE45E;" parent="YRFwXKMN_KRgXpPXOxtY-8" vertex="1" connectable="0">
          <mxGeometry x="0.0354" y="4" relative="1" as="geometry">
            <mxPoint x="1" as="offset" />
          </mxGeometry>
        </mxCell>
        <mxCell id="YRFwXKMN_KRgXpPXOxtY-14" style="edgeStyle=orthogonalEdgeStyle;rounded=0;orthogonalLoop=1;jettySize=auto;html=1;exitX=0.5;exitY=1;exitDx=0;exitDy=0;entryX=0;entryY=0.75;entryDx=0;entryDy=0;strokeColor=#FF6392;fontColor=#5AA9E6;fillColor=#FFE45E;" parent="1" source="YRFwXKMN_KRgXpPXOxtY-9" target="YRFwXKMN_KRgXpPXOxtY-13" edge="1">
          <mxGeometry relative="1" as="geometry" />
        </mxCell>
        <mxCell id="Bo9uxjZNozG0tCEq4NQd-89" value="&lt;font style=&quot;font-size: 9px;&quot;&gt;a2&lt;/font&gt;" style="edgeLabel;html=1;align=center;verticalAlign=middle;resizable=0;points=[];strokeColor=#FF6392;fontColor=#5AA9E6;fillColor=#FFE45E;" parent="YRFwXKMN_KRgXpPXOxtY-14" vertex="1" connectable="0">
          <mxGeometry x="-0.0751" y="1" relative="1" as="geometry">
            <mxPoint as="offset" />
          </mxGeometry>
        </mxCell>
        <mxCell id="YRFwXKMN_KRgXpPXOxtY-9" value="" style="ellipse;whiteSpace=wrap;html=1;strokeColor=#FF6392;fontColor=#5AA9E6;fillColor=#FFE45E;rotation=-90;" parent="1" vertex="1">
          <mxGeometry x="830" y="526" width="117" height="39" as="geometry" />
        </mxCell>
        <mxCell id="YRFwXKMN_KRgXpPXOxtY-12" value="" style="edgeStyle=none;orthogonalLoop=1;jettySize=auto;html=1;rounded=0;strokeColor=#FF6392;fontColor=#5AA9E6;fillColor=#FFE45E;entryX=1;entryY=0.5;entryDx=0;entryDy=0;" parent="1" target="YRFwXKMN_KRgXpPXOxtY-9" edge="1">
          <mxGeometry width="100" relative="1" as="geometry">
            <mxPoint x="889" y="449" as="sourcePoint" />
            <mxPoint x="941" y="429" as="targetPoint" />
            <Array as="points" />
          </mxGeometry>
        </mxCell>
        <mxCell id="Bo9uxjZNozG0tCEq4NQd-90" value="&lt;font style=&quot;font-size: 9px;&quot;&gt;alu_src&lt;/font&gt;" style="edgeLabel;html=1;align=center;verticalAlign=middle;resizable=0;points=[];strokeColor=#FF6392;fontColor=#5AA9E6;fillColor=#FFE45E;" parent="YRFwXKMN_KRgXpPXOxtY-12" vertex="1" connectable="0">
          <mxGeometry x="-0.1692" y="-1" relative="1" as="geometry">
            <mxPoint as="offset" />
          </mxGeometry>
        </mxCell>
        <mxCell id="Bo9uxjZNozG0tCEq4NQd-12" style="edgeStyle=orthogonalEdgeStyle;rounded=0;orthogonalLoop=1;jettySize=auto;html=1;strokeColor=#FF6392;fontColor=#5AA9E6;fillColor=#FFE45E;entryX=0.5;entryY=1;entryDx=0;entryDy=0;" parent="1" target="YRFwXKMN_KRgXpPXOxtY-13" edge="1">
          <mxGeometry relative="1" as="geometry">
            <mxPoint x="1039" y="523" as="sourcePoint" />
            <Array as="points">
              <mxPoint x="1039" y="507" />
              <mxPoint x="1038" y="507" />
            </Array>
          </mxGeometry>
        </mxCell>
        <mxCell id="Bo9uxjZNozG0tCEq4NQd-96" value="&lt;font style=&quot;font-size: 9px;&quot;&gt;alu_op&lt;/font&gt;" style="edgeLabel;html=1;align=center;verticalAlign=middle;resizable=0;points=[];strokeColor=#FF6392;fontColor=#5AA9E6;fillColor=#FFE45E;" parent="Bo9uxjZNozG0tCEq4NQd-12" vertex="1" connectable="0">
          <mxGeometry x="0.0523" relative="1" as="geometry">
            <mxPoint as="offset" />
          </mxGeometry>
        </mxCell>
        <mxCell id="Bo9uxjZNozG0tCEq4NQd-13" style="edgeStyle=orthogonalEdgeStyle;rounded=0;orthogonalLoop=1;jettySize=auto;html=1;exitX=1;exitY=0.25;exitDx=0;exitDy=0;strokeColor=#FF6392;fontColor=#5AA9E6;fillColor=#FFE45E;" parent="1" source="YRFwXKMN_KRgXpPXOxtY-13" edge="1">
          <mxGeometry relative="1" as="geometry">
            <mxPoint x="1128.3334350585938" y="294.1667175292969" as="targetPoint" />
          </mxGeometry>
        </mxCell>
        <mxCell id="Bo9uxjZNozG0tCEq4NQd-97" value="&lt;font style=&quot;font-size: 9px;&quot;&gt;zero_flag&lt;/font&gt;" style="edgeLabel;html=1;align=center;verticalAlign=middle;resizable=0;points=[];strokeColor=#FF6392;fontColor=#5AA9E6;fillColor=#FFE45E;" parent="Bo9uxjZNozG0tCEq4NQd-13" vertex="1" connectable="0">
          <mxGeometry x="0.087" y="-1" relative="1" as="geometry">
            <mxPoint as="offset" />
          </mxGeometry>
        </mxCell>
        <mxCell id="Bo9uxjZNozG0tCEq4NQd-17" style="edgeStyle=orthogonalEdgeStyle;rounded=0;orthogonalLoop=1;jettySize=auto;html=1;exitX=1;exitY=0.75;exitDx=0;exitDy=0;entryX=0;entryY=0.25;entryDx=0;entryDy=0;strokeColor=#FF6392;fontColor=#5AA9E6;fillColor=#FFE45E;" parent="1" source="YRFwXKMN_KRgXpPXOxtY-13" target="Bo9uxjZNozG0tCEq4NQd-16" edge="1">
          <mxGeometry relative="1" as="geometry" />
        </mxCell>
        <mxCell id="YRFwXKMN_KRgXpPXOxtY-13" value="" style="rounded=0;whiteSpace=wrap;html=1;strokeColor=#FF6392;fontColor=#5AA9E6;fillColor=#FFE45E;" parent="1" vertex="1">
          <mxGeometry x="976" y="343" width="125" height="130" as="geometry" />
        </mxCell>
        <mxCell id="Bo9uxjZNozG0tCEq4NQd-1" value="" style="endArrow=none;html=1;rounded=0;strokeColor=#FF9999;fontColor=#143642;curved=1;fillColor=#d5e8d4;edgeStyle=orthogonalEdgeStyle;" parent="1" edge="1">
          <mxGeometry width="50" height="50" relative="1" as="geometry">
            <mxPoint x="757" y="503" as="sourcePoint" />
            <mxPoint x="757" y="483" as="targetPoint" />
            <Array as="points">
              <mxPoint x="757" y="497" />
              <mxPoint x="764" y="497" />
              <mxPoint x="764" y="488" />
              <mxPoint x="757" y="488" />
            </Array>
          </mxGeometry>
        </mxCell>
        <mxCell id="Bo9uxjZNozG0tCEq4NQd-2" value="" style="endArrow=none;html=1;rounded=0;strokeColor=#FF6392;fontColor=#5AA9E6;fillColor=#FFE45E;" parent="1" edge="1">
          <mxGeometry width="50" height="50" relative="1" as="geometry">
            <mxPoint x="757" y="565" as="sourcePoint" />
            <mxPoint x="757" y="503" as="targetPoint" />
          </mxGeometry>
        </mxCell>
        <mxCell id="Bo9uxjZNozG0tCEq4NQd-3" value="" style="endArrow=none;html=1;rounded=0;strokeColor=#FF9999;fontColor=#143642;curved=1;fillColor=#d5e8d4;edgeStyle=orthogonalEdgeStyle;" parent="1" edge="1">
          <mxGeometry width="50" height="50" relative="1" as="geometry">
            <mxPoint x="757" y="387" as="sourcePoint" />
            <mxPoint x="757" y="367" as="targetPoint" />
            <Array as="points">
              <mxPoint x="757" y="381" />
              <mxPoint x="764" y="381" />
              <mxPoint x="764" y="372" />
              <mxPoint x="757" y="372" />
            </Array>
          </mxGeometry>
        </mxCell>
        <mxCell id="Bo9uxjZNozG0tCEq4NQd-4" value="" style="endArrow=none;html=1;rounded=0;strokeColor=#FF6392;fontColor=#5AA9E6;fillColor=#FFE45E;" parent="1" edge="1">
          <mxGeometry width="50" height="50" relative="1" as="geometry">
            <mxPoint x="757" y="483" as="sourcePoint" />
            <mxPoint x="757" y="386" as="targetPoint" />
          </mxGeometry>
        </mxCell>
        <mxCell id="Bo9uxjZNozG0tCEq4NQd-5" value="" style="rounded=0;whiteSpace=wrap;html=1;strokeColor=#FF6392;fontColor=#5AA9E6;fillColor=#FFE45E;" parent="1" vertex="1">
          <mxGeometry x="735" y="175" width="72" height="60" as="geometry" />
        </mxCell>
        <mxCell id="Bo9uxjZNozG0tCEq4NQd-6" value="" style="edgeStyle=none;orthogonalLoop=1;jettySize=auto;html=1;rounded=0;strokeColor=#FF6392;fontColor=#5AA9E6;fillColor=#FFE45E;entryX=0;entryY=0.5;entryDx=0;entryDy=0;" parent="1" target="Bo9uxjZNozG0tCEq4NQd-5" edge="1">
          <mxGeometry width="100" relative="1" as="geometry">
            <mxPoint x="757" y="367" as="sourcePoint" />
            <mxPoint x="815" y="342" as="targetPoint" />
            <Array as="points">
              <mxPoint x="757" y="288" />
              <mxPoint x="701" y="287" />
              <mxPoint x="701" y="205" />
            </Array>
          </mxGeometry>
        </mxCell>
        <mxCell id="Bo9uxjZNozG0tCEq4NQd-54" value="&lt;font style=&quot;font-size: 9px;&quot;&gt;imm&lt;/font&gt;" style="edgeLabel;html=1;align=center;verticalAlign=middle;resizable=0;points=[];strokeColor=#FF6392;fontColor=#5AA9E6;fillColor=#FFE45E;" parent="Bo9uxjZNozG0tCEq4NQd-6" vertex="1" connectable="0">
          <mxGeometry x="-0.1784" y="-1" relative="1" as="geometry">
            <mxPoint as="offset" />
          </mxGeometry>
        </mxCell>
        <mxCell id="Bo9uxjZNozG0tCEq4NQd-10" style="edgeStyle=orthogonalEdgeStyle;rounded=0;orthogonalLoop=1;jettySize=auto;html=1;strokeColor=#FF6392;fontColor=#5AA9E6;fillColor=#FFE45E;entryX=0;entryY=0.5;entryDx=0;entryDy=0;" parent="1" target="Bo9uxjZNozG0tCEq4NQd-7" edge="1">
          <mxGeometry relative="1" as="geometry">
            <mxPoint x="908" y="243" as="sourcePoint" />
            <Array as="points">
              <mxPoint x="908" y="234" />
              <mxPoint x="909" y="234" />
            </Array>
          </mxGeometry>
        </mxCell>
        <mxCell id="Bo9uxjZNozG0tCEq4NQd-115" value="&lt;font style=&quot;font-size: 9px;&quot;&gt;sel&lt;/font&gt;" style="edgeLabel;html=1;align=center;verticalAlign=middle;resizable=0;points=[];strokeColor=#FF6392;fontColor=#5AA9E6;fillColor=#FFE45E;" parent="Bo9uxjZNozG0tCEq4NQd-10" vertex="1" connectable="0">
          <mxGeometry x="-0.1821" y="1" relative="1" as="geometry">
            <mxPoint y="-1" as="offset" />
          </mxGeometry>
        </mxCell>
        <mxCell id="Bo9uxjZNozG0tCEq4NQd-11" style="edgeStyle=orthogonalEdgeStyle;rounded=0;orthogonalLoop=1;jettySize=auto;html=1;exitX=0.5;exitY=1;exitDx=0;exitDy=0;entryX=0;entryY=0.5;entryDx=0;entryDy=0;strokeColor=#FF6392;fontColor=#5AA9E6;fillColor=#FFE45E;" parent="1" source="Bo9uxjZNozG0tCEq4NQd-7" target="F5jFRrXpI0L9LgiIzDs1-1" edge="1">
          <mxGeometry relative="1" as="geometry">
            <Array as="points">
              <mxPoint x="948" y="149" />
              <mxPoint x="948" y="69" />
              <mxPoint x="83" y="69" />
              <mxPoint x="83" y="486" />
            </Array>
          </mxGeometry>
        </mxCell>
        <mxCell id="Bo9uxjZNozG0tCEq4NQd-39" value="&lt;font style=&quot;font-size: 9px;&quot;&gt;in_add&lt;/font&gt;" style="edgeLabel;html=1;align=center;verticalAlign=middle;resizable=0;points=[];strokeColor=#FF6392;fontColor=#5AA9E6;fillColor=#FFE45E;" parent="Bo9uxjZNozG0tCEq4NQd-11" vertex="1" connectable="0">
          <mxGeometry x="0.7647" relative="1" as="geometry">
            <mxPoint as="offset" />
          </mxGeometry>
        </mxCell>
        <mxCell id="Bo9uxjZNozG0tCEq4NQd-65" value="&lt;font style=&quot;font-size: 9px;&quot;&gt;in_add&lt;/font&gt;" style="edgeLabel;html=1;align=center;verticalAlign=middle;resizable=0;points=[];strokeColor=#FF6392;fontColor=#5AA9E6;fillColor=#FFE45E;" parent="Bo9uxjZNozG0tCEq4NQd-11" vertex="1" connectable="0">
          <mxGeometry x="-0.7493" relative="1" as="geometry">
            <mxPoint x="-128" y="-1" as="offset" />
          </mxGeometry>
        </mxCell>
        <mxCell id="Bo9uxjZNozG0tCEq4NQd-7" value="" style="ellipse;whiteSpace=wrap;html=1;strokeColor=#FF6392;fontColor=#5AA9E6;fillColor=#FFE45E;rotation=-90;" parent="1" vertex="1">
          <mxGeometry x="850" y="130" width="117" height="39" as="geometry" />
        </mxCell>
        <mxCell id="Bo9uxjZNozG0tCEq4NQd-8" style="edgeStyle=orthogonalEdgeStyle;rounded=0;orthogonalLoop=1;jettySize=auto;html=1;exitX=1;exitY=0.5;exitDx=0;exitDy=0;entryX=0.395;entryY=0.049;entryDx=0;entryDy=0;entryPerimeter=0;strokeColor=#FF6392;fontColor=#5AA9E6;fillColor=#FFE45E;" parent="1" source="Bo9uxjZNozG0tCEq4NQd-5" target="Bo9uxjZNozG0tCEq4NQd-7" edge="1">
          <mxGeometry relative="1" as="geometry" />
        </mxCell>
        <mxCell id="Bo9uxjZNozG0tCEq4NQd-59" value="&lt;font style=&quot;font-size: 9px;&quot;&gt;n2&lt;/font&gt;" style="edgeLabel;html=1;align=center;verticalAlign=middle;resizable=0;points=[];strokeColor=#FF6392;fontColor=#5AA9E6;fillColor=#FFE45E;" parent="Bo9uxjZNozG0tCEq4NQd-8" vertex="1" connectable="0">
          <mxGeometry x="-0.5508" y="1" relative="1" as="geometry">
            <mxPoint as="offset" />
          </mxGeometry>
        </mxCell>
        <mxCell id="Bo9uxjZNozG0tCEq4NQd-19" style="edgeStyle=orthogonalEdgeStyle;rounded=0;orthogonalLoop=1;jettySize=auto;html=1;strokeColor=#FF6392;fontColor=#5AA9E6;fillColor=#FFE45E;entryX=0;entryY=0.75;entryDx=0;entryDy=0;" parent="1" target="Bo9uxjZNozG0tCEq4NQd-16" edge="1">
          <mxGeometry relative="1" as="geometry">
            <mxPoint x="823" y="575" as="sourcePoint" />
            <Array as="points">
              <mxPoint x="823" y="671" />
              <mxPoint x="1144" y="671" />
            </Array>
          </mxGeometry>
        </mxCell>
        <mxCell id="Bo9uxjZNozG0tCEq4NQd-110" value="&lt;font style=&quot;font-size: 9px;&quot;&gt;rd2&lt;/font&gt;" style="edgeLabel;html=1;align=center;verticalAlign=middle;resizable=0;points=[];strokeColor=#FF6392;fontColor=#5AA9E6;fillColor=#FFE45E;" parent="Bo9uxjZNozG0tCEq4NQd-19" vertex="1" connectable="0">
          <mxGeometry x="0.141" y="-2" relative="1" as="geometry">
            <mxPoint as="offset" />
          </mxGeometry>
        </mxCell>
        <mxCell id="Bo9uxjZNozG0tCEq4NQd-24" style="edgeStyle=orthogonalEdgeStyle;rounded=0;orthogonalLoop=1;jettySize=auto;html=1;exitX=0.5;exitY=1;exitDx=0;exitDy=0;strokeColor=#FF6392;fontColor=#5AA9E6;fillColor=#FFE45E;entryX=0.5;entryY=1;entryDx=0;entryDy=0;" parent="1" target="Bo9uxjZNozG0tCEq4NQd-16" edge="1">
          <mxGeometry relative="1" as="geometry">
            <mxPoint x="1223.857142857143" y="760.547589983259" as="sourcePoint" />
            <Array as="points">
              <mxPoint x="1224" y="741" />
              <mxPoint x="1224" y="741" />
            </Array>
          </mxGeometry>
        </mxCell>
        <mxCell id="Bo9uxjZNozG0tCEq4NQd-109" value="&lt;font style=&quot;font-size: 9px;&quot;&gt;memr&lt;/font&gt;" style="edgeLabel;html=1;align=center;verticalAlign=middle;resizable=0;points=[];strokeColor=#FF6392;fontColor=#5AA9E6;fillColor=#FFE45E;" parent="Bo9uxjZNozG0tCEq4NQd-24" vertex="1" connectable="0">
          <mxGeometry x="-0.2477" relative="1" as="geometry">
            <mxPoint as="offset" />
          </mxGeometry>
        </mxCell>
        <mxCell id="Bo9uxjZNozG0tCEq4NQd-33" style="edgeStyle=orthogonalEdgeStyle;rounded=0;orthogonalLoop=1;jettySize=auto;html=1;exitX=0.25;exitY=0;exitDx=0;exitDy=0;strokeColor=#FF6392;fontColor=#5AA9E6;fillColor=#FFE45E;entryX=0.25;entryY=0;entryDx=0;entryDy=0;" parent="1" target="Bo9uxjZNozG0tCEq4NQd-16" edge="1">
          <mxGeometry relative="1" as="geometry">
            <mxPoint x="1183.6363636363635" y="472.12124911221576" as="sourcePoint" />
          </mxGeometry>
        </mxCell>
        <mxCell id="Bo9uxjZNozG0tCEq4NQd-108" value="&lt;font style=&quot;font-size: 9px;&quot;&gt;memw&lt;/font&gt;" style="edgeLabel;html=1;align=center;verticalAlign=middle;resizable=0;points=[];strokeColor=#FF6392;fontColor=#5AA9E6;fillColor=#FFE45E;" parent="Bo9uxjZNozG0tCEq4NQd-33" vertex="1" connectable="0">
          <mxGeometry x="-0.3387" y="-1" relative="1" as="geometry">
            <mxPoint as="offset" />
          </mxGeometry>
        </mxCell>
        <mxCell id="Bo9uxjZNozG0tCEq4NQd-16" value="" style="rounded=0;whiteSpace=wrap;html=1;strokeColor=#FF6392;fontColor=#5AA9E6;fillColor=#FFE45E;" parent="1" vertex="1">
          <mxGeometry x="1144" y="523" width="160" height="197" as="geometry" />
        </mxCell>
        <mxCell id="Bo9uxjZNozG0tCEq4NQd-18" value="" style="endArrow=none;html=1;rounded=0;strokeColor=#FF9999;fontColor=#143642;curved=1;fillColor=#d5e8d4;edgeStyle=orthogonalEdgeStyle;" parent="1" edge="1">
          <mxGeometry width="50" height="50" relative="1" as="geometry">
            <mxPoint x="823" y="575" as="sourcePoint" />
            <mxPoint x="823" y="555" as="targetPoint" />
            <Array as="points">
              <mxPoint x="823" y="569" />
              <mxPoint x="830" y="569" />
              <mxPoint x="830" y="560" />
              <mxPoint x="823" y="560" />
            </Array>
          </mxGeometry>
        </mxCell>
        <mxCell id="Bo9uxjZNozG0tCEq4NQd-20" value="" style="endArrow=none;html=1;rounded=0;strokeColor=#FF6392;fontColor=#5AA9E6;fillColor=#FFE45E;" parent="1" edge="1">
          <mxGeometry width="50" height="50" relative="1" as="geometry">
            <mxPoint x="823" y="555" as="sourcePoint" />
            <mxPoint x="823" y="504" as="targetPoint" />
          </mxGeometry>
        </mxCell>
        <mxCell id="Bo9uxjZNozG0tCEq4NQd-22" value="" style="endArrow=none;html=1;rounded=0;strokeColor=#FF6392;fontColor=#5AA9E6;fillColor=#FFE45E;exitX=0.417;exitY=-0.002;exitDx=0;exitDy=0;exitPerimeter=0;entryX=0.584;entryY=0.001;entryDx=0;entryDy=0;entryPerimeter=0;" parent="1" source="Bo9uxjZNozG0tCEq4NQd-16" target="Bo9uxjZNozG0tCEq4NQd-16" edge="1">
          <mxGeometry width="50" height="50" relative="1" as="geometry">
            <mxPoint x="1170" y="649" as="sourcePoint" />
            <mxPoint x="1195" y="597" as="targetPoint" />
            <Array as="points">
              <mxPoint x="1224" y="538" />
            </Array>
          </mxGeometry>
        </mxCell>
        <mxCell id="Bo9uxjZNozG0tCEq4NQd-26" style="edgeStyle=orthogonalEdgeStyle;rounded=0;orthogonalLoop=1;jettySize=auto;html=1;strokeColor=#FF6392;fontColor=#5AA9E6;fillColor=#FFE45E;entryX=1;entryY=0;entryDx=0;entryDy=0;" parent="1" target="Bo9uxjZNozG0tCEq4NQd-25" edge="1">
          <mxGeometry relative="1" as="geometry">
            <mxPoint x="1123" y="441" as="sourcePoint" />
            <Array as="points">
              <mxPoint x="1123" y="440" />
              <mxPoint x="1202" y="440" />
              <mxPoint x="1202" y="269" />
            </Array>
          </mxGeometry>
        </mxCell>
        <mxCell id="Bo9uxjZNozG0tCEq4NQd-98" value="&lt;font style=&quot;font-size: 9px;&quot;&gt;alu_out&lt;/font&gt;" style="edgeLabel;html=1;align=center;verticalAlign=middle;resizable=0;points=[];strokeColor=#FF6392;fontColor=#5AA9E6;fillColor=#FFE45E;" parent="Bo9uxjZNozG0tCEq4NQd-26" vertex="1" connectable="0">
          <mxGeometry x="-0.8414" relative="1" as="geometry">
            <mxPoint as="offset" />
          </mxGeometry>
        </mxCell>
        <mxCell id="Bo9uxjZNozG0tCEq4NQd-28" style="edgeStyle=orthogonalEdgeStyle;rounded=0;orthogonalLoop=1;jettySize=auto;html=1;exitX=0.5;exitY=1;exitDx=0;exitDy=0;strokeColor=#FF6392;fontColor=#5AA9E6;fillColor=#FFE45E;endArrow=none;startFill=0;" parent="1" source="Bo9uxjZNozG0tCEq4NQd-25" edge="1">
          <mxGeometry relative="1" as="geometry">
            <mxPoint x="640" y="703" as="targetPoint" />
            <Array as="points">
              <mxPoint x="1358" y="311" />
              <mxPoint x="1358" y="814" />
              <mxPoint x="640" y="814" />
            </Array>
          </mxGeometry>
        </mxCell>
        <mxCell id="Bo9uxjZNozG0tCEq4NQd-107" value="&lt;font style=&quot;font-size: 9px;&quot;&gt;a1&lt;/font&gt;" style="edgeLabel;html=1;align=center;verticalAlign=middle;resizable=0;points=[];strokeColor=#FF6392;fontColor=#5AA9E6;fillColor=#FFE45E;" parent="Bo9uxjZNozG0tCEq4NQd-28" vertex="1" connectable="0">
          <mxGeometry x="-0.5554" y="-1" relative="1" as="geometry">
            <mxPoint as="offset" />
          </mxGeometry>
        </mxCell>
        <mxCell id="Bo9uxjZNozG0tCEq4NQd-139" value="&lt;font style=&quot;font-size: 9px;&quot;&gt;a1&lt;/font&gt;" style="edgeLabel;html=1;align=center;verticalAlign=middle;resizable=0;points=[];strokeColor=#FF6392;fontColor=#5AA9E6;fillColor=#FFE45E;" parent="Bo9uxjZNozG0tCEq4NQd-28" vertex="1" connectable="0">
          <mxGeometry x="0.6791" relative="1" as="geometry">
            <mxPoint x="1" as="offset" />
          </mxGeometry>
        </mxCell>
        <mxCell id="Bo9uxjZNozG0tCEq4NQd-31" style="edgeStyle=orthogonalEdgeStyle;rounded=0;orthogonalLoop=1;jettySize=auto;html=1;exitX=1;exitY=0.5;exitDx=0;exitDy=0;strokeColor=#FF6392;fontColor=#5AA9E6;fillColor=#FFE45E;entryX=1;entryY=0.5;entryDx=0;entryDy=0;" parent="1" target="Bo9uxjZNozG0tCEq4NQd-25" edge="1">
          <mxGeometry relative="1" as="geometry">
            <mxPoint x="1293.8571428571431" y="199.47624860491078" as="sourcePoint" />
            <Array as="points">
              <mxPoint x="1294" y="225" />
            </Array>
          </mxGeometry>
        </mxCell>
        <mxCell id="Bo9uxjZNozG0tCEq4NQd-106" value="&lt;font style=&quot;font-size: 9px;&quot;&gt;sel2&lt;/font&gt;" style="edgeLabel;html=1;align=center;verticalAlign=middle;resizable=0;points=[];strokeColor=#FF6392;fontColor=#5AA9E6;fillColor=#FFE45E;" parent="Bo9uxjZNozG0tCEq4NQd-31" vertex="1" connectable="0">
          <mxGeometry x="-0.132" y="-1" relative="1" as="geometry">
            <mxPoint as="offset" />
          </mxGeometry>
        </mxCell>
        <mxCell id="Bo9uxjZNozG0tCEq4NQd-25" value="" style="ellipse;whiteSpace=wrap;html=1;strokeColor=#FF6392;fontColor=#5AA9E6;fillColor=#FFE45E;rotation=-90;" parent="1" vertex="1">
          <mxGeometry x="1235" y="291" width="117" height="39" as="geometry" />
        </mxCell>
        <mxCell id="Bo9uxjZNozG0tCEq4NQd-27" style="edgeStyle=orthogonalEdgeStyle;rounded=0;orthogonalLoop=1;jettySize=auto;html=1;exitX=1;exitY=0.5;exitDx=0;exitDy=0;entryX=0.402;entryY=0.002;entryDx=0;entryDy=0;entryPerimeter=0;strokeColor=#FF6392;fontColor=#5AA9E6;fillColor=#FFE45E;" parent="1" source="Bo9uxjZNozG0tCEq4NQd-16" target="Bo9uxjZNozG0tCEq4NQd-25" edge="1">
          <mxGeometry relative="1" as="geometry" />
        </mxCell>
        <mxCell id="Bo9uxjZNozG0tCEq4NQd-105" value="&lt;font style=&quot;font-size: 9px;&quot;&gt;data_out&lt;/font&gt;" style="edgeLabel;html=1;align=center;verticalAlign=middle;resizable=0;points=[];strokeColor=#FF6392;fontColor=#5AA9E6;fillColor=#FFE45E;" parent="Bo9uxjZNozG0tCEq4NQd-27" vertex="1" connectable="0">
          <mxGeometry x="0.1233" y="2" relative="1" as="geometry">
            <mxPoint as="offset" />
          </mxGeometry>
        </mxCell>
        <mxCell id="Bo9uxjZNozG0tCEq4NQd-29" value="" style="endArrow=none;html=1;rounded=0;strokeColor=#FF9999;fontColor=#143642;curved=1;fillColor=#d5e8d4;edgeStyle=orthogonalEdgeStyle;" parent="1" edge="1">
          <mxGeometry width="50" height="50" relative="1" as="geometry">
            <mxPoint x="640" y="705" as="sourcePoint" />
            <mxPoint x="640" y="685" as="targetPoint" />
            <Array as="points">
              <mxPoint x="640" y="699" />
              <mxPoint x="647" y="699" />
              <mxPoint x="647" y="690" />
              <mxPoint x="640" y="690" />
            </Array>
          </mxGeometry>
        </mxCell>
        <mxCell id="Bo9uxjZNozG0tCEq4NQd-30" value="" style="endArrow=none;html=1;rounded=0;strokeColor=#FF6392;fontColor=#5AA9E6;fillColor=#FFE45E;" parent="1" edge="1">
          <mxGeometry width="50" height="50" relative="1" as="geometry">
            <mxPoint x="640" y="686" as="sourcePoint" />
            <mxPoint x="494" y="523" as="targetPoint" />
            <Array as="points">
              <mxPoint x="640" y="559" />
              <mxPoint x="494" y="559" />
            </Array>
          </mxGeometry>
        </mxCell>
        <mxCell id="Bo9uxjZNozG0tCEq4NQd-140" value="&lt;font style=&quot;font-size: 9px;&quot;&gt;a1&lt;/font&gt;" style="edgeLabel;html=1;align=center;verticalAlign=middle;resizable=0;points=[];strokeColor=#FF6392;fontColor=#5AA9E6;fillColor=#FFE45E;" parent="Bo9uxjZNozG0tCEq4NQd-30" vertex="1" connectable="0">
          <mxGeometry x="0.4207" y="3" relative="1" as="geometry">
            <mxPoint as="offset" />
          </mxGeometry>
        </mxCell>
        <mxCell id="Bo9uxjZNozG0tCEq4NQd-35" value="&lt;font style=&quot;font-size: 6px;&quot;&gt;clk&lt;/font&gt;" style="text;html=1;align=center;verticalAlign=middle;resizable=0;points=[];autosize=1;strokeColor=none;fillColor=none;fontColor=#5AA9E6;" parent="1" vertex="1">
          <mxGeometry x="107" y="436" width="25" height="26" as="geometry" />
        </mxCell>
        <mxCell id="Bo9uxjZNozG0tCEq4NQd-36" value="&lt;font style=&quot;font-size: 6px;&quot;&gt;in_address&lt;/font&gt;" style="text;html=1;align=center;verticalAlign=middle;resizable=0;points=[];autosize=1;strokeColor=none;fillColor=none;fontColor=#5AA9E6;rotation=-90;" parent="1" vertex="1">
          <mxGeometry x="87" y="473" width="47" height="26" as="geometry" />
        </mxCell>
        <mxCell id="Bo9uxjZNozG0tCEq4NQd-37" value="&lt;font style=&quot;font-size: 6px;&quot;&gt;out_address&lt;/font&gt;" style="text;html=1;align=center;verticalAlign=middle;resizable=0;points=[];autosize=1;strokeColor=none;fillColor=none;fontColor=#5AA9E6;rotation=-90;" parent="1" vertex="1">
          <mxGeometry x="104" y="473" width="51" height="26" as="geometry" />
        </mxCell>
        <mxCell id="Bo9uxjZNozG0tCEq4NQd-38" value="&lt;font style=&quot;font-size: 6px;&quot;&gt;rst&lt;/font&gt;" style="text;html=1;align=center;verticalAlign=middle;resizable=0;points=[];autosize=1;strokeColor=none;fillColor=none;fontColor=#5AA9E6;" parent="1" vertex="1">
          <mxGeometry x="98" y="497" width="25" height="26" as="geometry" />
        </mxCell>
        <mxCell id="Bo9uxjZNozG0tCEq4NQd-41" value="PC" style="text;html=1;align=center;verticalAlign=middle;resizable=0;points=[];autosize=1;strokeColor=none;fillColor=none;fontColor=#5AA9E6;" parent="1" vertex="1">
          <mxGeometry x="102" y="517" width="35" height="26" as="geometry" />
        </mxCell>
        <mxCell id="Bo9uxjZNozG0tCEq4NQd-42" value="&lt;font style=&quot;font-size: 6px;&quot;&gt;Instruction_address&lt;/font&gt;" style="text;html=1;align=center;verticalAlign=middle;resizable=0;points=[];autosize=1;strokeColor=none;fillColor=none;fontColor=#5AA9E6;rotation=-90;" parent="1" vertex="1">
          <mxGeometry x="259" y="471" width="70" height="26" as="geometry" />
        </mxCell>
        <mxCell id="Bo9uxjZNozG0tCEq4NQd-43" value="&lt;font style=&quot;font-size: 6px;&quot;&gt;Instruction&lt;/font&gt;" style="text;html=1;align=center;verticalAlign=middle;resizable=0;points=[];autosize=1;strokeColor=none;fillColor=none;fontColor=#5AA9E6;rotation=-90;" parent="1" vertex="1">
          <mxGeometry x="379" y="473" width="46" height="26" as="geometry" />
        </mxCell>
        <mxCell id="Bo9uxjZNozG0tCEq4NQd-46" value="&lt;font style=&quot;font-size: 6px;&quot;&gt;operand111&lt;/font&gt;" style="text;html=1;align=center;verticalAlign=middle;resizable=0;points=[];autosize=1;strokeColor=none;fillColor=none;fontColor=#5AA9E6;rotation=0;" parent="1" vertex="1">
          <mxGeometry x="211" y="156" width="49" height="26" as="geometry" />
        </mxCell>
        <mxCell id="Bo9uxjZNozG0tCEq4NQd-47" value="&lt;font style=&quot;font-size: 6px;&quot;&gt;4&lt;/font&gt;" style="text;html=1;align=center;verticalAlign=middle;resizable=0;points=[];autosize=1;strokeColor=none;fillColor=none;fontColor=#5AA9E6;rotation=0;" parent="1" vertex="1">
          <mxGeometry x="214" y="189" width="21" height="26" as="geometry" />
        </mxCell>
        <mxCell id="Bo9uxjZNozG0tCEq4NQd-48" value="&lt;font style=&quot;font-size: 6px;&quot;&gt;instruction&lt;/font&gt;" style="text;html=1;align=center;verticalAlign=middle;resizable=0;points=[];autosize=1;strokeColor=none;fillColor=none;fontColor=#5AA9E6;rotation=-90;" parent="1" vertex="1">
          <mxGeometry x="472" y="661" width="45" height="26" as="geometry" />
        </mxCell>
        <mxCell id="Bo9uxjZNozG0tCEq4NQd-49" value="&lt;font style=&quot;font-size: 6px;&quot;&gt;immediate&lt;/font&gt;" style="text;html=1;align=center;verticalAlign=middle;resizable=0;points=[];autosize=1;strokeColor=none;fillColor=none;fontColor=#5AA9E6;rotation=-90;" parent="1" vertex="1">
          <mxGeometry x="514" y="679" width="46" height="26" as="geometry" />
        </mxCell>
        <mxCell id="Bo9uxjZNozG0tCEq4NQd-55" value="&lt;span style=&quot;font-size: 6px;&quot;&gt;Sum1&lt;/span&gt;" style="text;html=1;align=center;verticalAlign=middle;resizable=0;points=[];autosize=1;strokeColor=none;fillColor=none;fontColor=#5AA9E6;rotation=0;" parent="1" vertex="1">
          <mxGeometry x="257" y="156" width="34" height="26" as="geometry" />
        </mxCell>
        <mxCell id="Bo9uxjZNozG0tCEq4NQd-56" value="&lt;font style=&quot;font-size: 6px;&quot;&gt;operand11&lt;/font&gt;" style="text;html=1;align=center;verticalAlign=middle;resizable=0;points=[];autosize=1;strokeColor=none;fillColor=none;fontColor=#5AA9E6;rotation=0;" parent="1" vertex="1">
          <mxGeometry x="730" y="175" width="46" height="26" as="geometry" />
        </mxCell>
        <mxCell id="Bo9uxjZNozG0tCEq4NQd-57" value="&lt;font style=&quot;font-size: 6px;&quot;&gt;operand22&lt;/font&gt;" style="text;html=1;align=center;verticalAlign=middle;resizable=0;points=[];autosize=1;strokeColor=none;fillColor=none;fontColor=#5AA9E6;rotation=0;" parent="1" vertex="1">
          <mxGeometry x="729" y="189" width="47" height="26" as="geometry" />
        </mxCell>
        <mxCell id="Bo9uxjZNozG0tCEq4NQd-58" value="&lt;font style=&quot;font-size: 6px;&quot;&gt;Sum&lt;/font&gt;" style="text;html=1;align=center;verticalAlign=middle;resizable=0;points=[];autosize=1;strokeColor=none;fillColor=none;fontColor=#5AA9E6;rotation=0;" parent="1" vertex="1">
          <mxGeometry x="783" y="192" width="30" height="26" as="geometry" />
        </mxCell>
        <mxCell id="Bo9uxjZNozG0tCEq4NQd-61" value="&lt;span style=&quot;font-size: 6px;&quot;&gt;in1&lt;/span&gt;" style="text;html=1;align=center;verticalAlign=middle;resizable=0;points=[];autosize=1;strokeColor=none;fillColor=none;fontColor=#5AA9E6;rotation=-70;" parent="1" vertex="1">
          <mxGeometry x="885" y="97" width="26" height="26" as="geometry" />
        </mxCell>
        <mxCell id="Bo9uxjZNozG0tCEq4NQd-62" value="&lt;font style=&quot;font-size: 6px;&quot;&gt;in2&lt;/font&gt;" style="text;html=1;align=center;verticalAlign=middle;resizable=0;points=[];autosize=1;strokeColor=none;fillColor=none;fontColor=#5AA9E6;rotation=-90;" parent="1" vertex="1">
          <mxGeometry x="880" y="149" width="26" height="26" as="geometry" />
        </mxCell>
        <mxCell id="Bo9uxjZNozG0tCEq4NQd-63" value="&lt;font style=&quot;font-size: 6px;&quot;&gt;out&lt;/font&gt;" style="text;html=1;align=center;verticalAlign=middle;resizable=0;points=[];autosize=1;strokeColor=none;fillColor=none;fontColor=#5AA9E6;rotation=-90;" parent="1" vertex="1">
          <mxGeometry x="909" y="136.5" width="26" height="26" as="geometry" />
        </mxCell>
        <mxCell id="Bo9uxjZNozG0tCEq4NQd-64" value="&lt;font style=&quot;font-size: 6px;&quot;&gt;MemtoReg&lt;/font&gt;" style="text;html=1;align=center;verticalAlign=middle;resizable=0;points=[];autosize=1;strokeColor=none;fillColor=none;fontColor=#5AA9E6;rotation=-90;" parent="1" vertex="1">
          <mxGeometry x="883" y="180" width="47" height="26" as="geometry" />
        </mxCell>
        <mxCell id="Bo9uxjZNozG0tCEq4NQd-66" value="&lt;font style=&quot;font-size: 6px;&quot;&gt;Read_reg1&lt;/font&gt;" style="text;html=1;align=center;verticalAlign=middle;resizable=0;points=[];autosize=1;strokeColor=none;fillColor=none;fontColor=#5AA9E6;rotation=-90;" parent="1" vertex="1">
          <mxGeometry x="524" y="375" width="48" height="26" as="geometry" />
        </mxCell>
        <mxCell id="Bo9uxjZNozG0tCEq4NQd-67" value="&lt;span style=&quot;font-size: 6px;&quot;&gt;Read_reg2&lt;/span&gt;" style="text;html=1;align=center;verticalAlign=middle;resizable=0;points=[];autosize=1;strokeColor=none;fillColor=none;fontColor=#5AA9E6;rotation=-90;" parent="1" vertex="1">
          <mxGeometry x="524" y="425" width="48" height="26" as="geometry" />
        </mxCell>
        <mxCell id="Bo9uxjZNozG0tCEq4NQd-68" value="&lt;font style=&quot;font-size: 6px;&quot;&gt;Write_reg&lt;/font&gt;" style="text;html=1;align=center;verticalAlign=middle;resizable=0;points=[];autosize=1;strokeColor=none;fillColor=none;fontColor=#5AA9E6;rotation=-90;" parent="1" vertex="1">
          <mxGeometry x="526" y="467" width="44" height="26" as="geometry" />
        </mxCell>
        <mxCell id="Bo9uxjZNozG0tCEq4NQd-69" value="&lt;font style=&quot;font-size: 6px;&quot;&gt;Write_data&lt;/font&gt;" style="text;html=1;align=center;verticalAlign=middle;resizable=0;points=[];autosize=1;strokeColor=none;fillColor=none;fontColor=#5AA9E6;rotation=-90;" parent="1" vertex="1">
          <mxGeometry x="525" y="513" width="47" height="26" as="geometry" />
        </mxCell>
        <mxCell id="Bo9uxjZNozG0tCEq4NQd-70" value="&lt;font style=&quot;font-size: 6px;&quot;&gt;Read_data1&lt;/font&gt;" style="text;html=1;align=center;verticalAlign=middle;resizable=0;points=[];autosize=1;strokeColor=none;fillColor=none;fontColor=#5AA9E6;rotation=-90;" parent="1" vertex="1">
          <mxGeometry x="687" y="366" width="51" height="26" as="geometry" />
        </mxCell>
        <mxCell id="Bo9uxjZNozG0tCEq4NQd-71" value="&lt;font style=&quot;font-size: 6px;&quot;&gt;Read_data2&lt;/font&gt;" style="text;html=1;align=center;verticalAlign=middle;resizable=0;points=[];autosize=1;strokeColor=none;fillColor=none;fontColor=#5AA9E6;rotation=-90;" parent="1" vertex="1">
          <mxGeometry x="687" y="481" width="51" height="26" as="geometry" />
        </mxCell>
        <mxCell id="Bo9uxjZNozG0tCEq4NQd-72" value="&lt;font style=&quot;font-size: 6px;&quot;&gt;clk&lt;/font&gt;" style="text;html=1;align=center;verticalAlign=middle;resizable=0;points=[];autosize=1;strokeColor=none;fillColor=none;fontColor=#5AA9E6;rotation=0;" parent="1" vertex="1">
          <mxGeometry x="620" y="340" width="25" height="26" as="geometry" />
        </mxCell>
        <mxCell id="Bo9uxjZNozG0tCEq4NQd-73" value="&lt;font style=&quot;font-size: 6px;&quot;&gt;RegWrite&lt;/font&gt;" style="text;html=1;align=center;verticalAlign=middle;resizable=0;points=[];autosize=1;strokeColor=none;fillColor=none;fontColor=#5AA9E6;rotation=0;" parent="1" vertex="1">
          <mxGeometry x="567" y="330" width="43" height="26" as="geometry" />
        </mxCell>
        <mxCell id="Bo9uxjZNozG0tCEq4NQd-84" value="&lt;font style=&quot;font-size: 6px;&quot;&gt;in1&lt;/font&gt;" style="text;html=1;align=center;verticalAlign=middle;resizable=0;points=[];autosize=1;strokeColor=none;fillColor=none;fontColor=#5AA9E6;rotation=-75;" parent="1" vertex="1">
          <mxGeometry x="864" y="494" width="26" height="26" as="geometry" />
        </mxCell>
        <mxCell id="Bo9uxjZNozG0tCEq4NQd-85" value="&lt;font style=&quot;font-size: 6px;&quot;&gt;in2&lt;/font&gt;" style="text;html=1;align=center;verticalAlign=middle;resizable=0;points=[];autosize=1;strokeColor=none;fillColor=none;fontColor=#5AA9E6;rotation=-90;" parent="1" vertex="1">
          <mxGeometry x="861" y="551" width="26" height="26" as="geometry" />
        </mxCell>
        <mxCell id="Bo9uxjZNozG0tCEq4NQd-86" value="&lt;font style=&quot;font-size: 6px;&quot;&gt;out&lt;/font&gt;" style="text;html=1;align=center;verticalAlign=middle;resizable=0;points=[];autosize=1;strokeColor=none;fillColor=none;fontColor=#5AA9E6;rotation=-90;" parent="1" vertex="1">
          <mxGeometry x="887" y="532.5" width="26" height="26" as="geometry" />
        </mxCell>
        <mxCell id="Bo9uxjZNozG0tCEq4NQd-87" value="&lt;span style=&quot;font-size: 6px;&quot;&gt;MemtoReg&lt;/span&gt;" style="text;html=1;align=center;verticalAlign=middle;resizable=0;points=[];autosize=1;strokeColor=none;fillColor=none;fontColor=#5AA9E6;rotation=-90;" parent="1" vertex="1">
          <mxGeometry x="864" y="493" width="47" height="26" as="geometry" />
        </mxCell>
        <mxCell id="Bo9uxjZNozG0tCEq4NQd-91" value="&lt;font style=&quot;font-size: 6px;&quot;&gt;operand1&lt;/font&gt;" style="text;html=1;align=center;verticalAlign=middle;resizable=0;points=[];autosize=1;strokeColor=none;fillColor=none;fontColor=#5AA9E6;rotation=-90;" parent="1" vertex="1">
          <mxGeometry x="963" y="361" width="43" height="26" as="geometry" />
        </mxCell>
        <mxCell id="Bo9uxjZNozG0tCEq4NQd-92" value="&lt;font style=&quot;font-size: 6px;&quot;&gt;operand2&lt;/font&gt;" style="text;html=1;align=center;verticalAlign=middle;resizable=0;points=[];autosize=1;strokeColor=none;fillColor=none;fontColor=#5AA9E6;rotation=-90;" parent="1" vertex="1">
          <mxGeometry x="963" y="430" width="43" height="26" as="geometry" />
        </mxCell>
        <mxCell id="Bo9uxjZNozG0tCEq4NQd-93" value="&lt;font style=&quot;font-size: 6px;&quot;&gt;ALUresult&lt;/font&gt;" style="text;html=1;align=center;verticalAlign=middle;resizable=0;points=[];autosize=1;strokeColor=none;fillColor=none;fontColor=#5AA9E6;rotation=-90;" parent="1" vertex="1">
          <mxGeometry x="1069" y="428" width="44" height="26" as="geometry" />
        </mxCell>
        <mxCell id="Bo9uxjZNozG0tCEq4NQd-94" value="&lt;span style=&quot;font-size: 6px;&quot;&gt;ALUoperation&lt;/span&gt;" style="text;html=1;align=center;verticalAlign=middle;resizable=0;points=[];autosize=1;strokeColor=none;fillColor=none;fontColor=#5AA9E6;rotation=0;" parent="1" vertex="1">
          <mxGeometry x="1012" y="451" width="55" height="26" as="geometry" />
        </mxCell>
        <mxCell id="Bo9uxjZNozG0tCEq4NQd-95" value="&lt;font style=&quot;font-size: 6px;&quot;&gt;zero&lt;/font&gt;" style="text;html=1;align=center;verticalAlign=middle;resizable=0;points=[];autosize=1;strokeColor=none;fillColor=none;fontColor=#5AA9E6;rotation=-90;" parent="1" vertex="1">
          <mxGeometry x="1080" y="361" width="30" height="26" as="geometry" />
        </mxCell>
        <mxCell id="Bo9uxjZNozG0tCEq4NQd-99" value="&lt;font style=&quot;font-size: 6px;&quot;&gt;writeData&lt;/font&gt;" style="text;html=1;align=center;verticalAlign=middle;resizable=0;points=[];autosize=1;strokeColor=none;fillColor=none;fontColor=#5AA9E6;rotation=-90;" parent="1" vertex="1">
          <mxGeometry x="1132" y="653" width="43" height="26" as="geometry" />
        </mxCell>
        <mxCell id="Bo9uxjZNozG0tCEq4NQd-100" value="&lt;font style=&quot;font-size: 6px;&quot;&gt;address&lt;/font&gt;" style="text;html=1;align=center;verticalAlign=middle;resizable=0;points=[];autosize=1;strokeColor=none;fillColor=none;fontColor=#5AA9E6;rotation=-90;" parent="1" vertex="1">
          <mxGeometry x="1132" y="558.5" width="39" height="26" as="geometry" />
        </mxCell>
        <mxCell id="Bo9uxjZNozG0tCEq4NQd-101" value="&lt;span style=&quot;font-size: 6px;&quot;&gt;readData&lt;/span&gt;" style="text;html=1;align=center;verticalAlign=middle;resizable=0;points=[];autosize=1;strokeColor=none;fillColor=none;fontColor=#5AA9E6;rotation=-90;" parent="1" vertex="1">
          <mxGeometry x="1272.5" y="606" width="43" height="26" as="geometry" />
        </mxCell>
        <mxCell id="Bo9uxjZNozG0tCEq4NQd-102" value="&lt;font style=&quot;font-size: 6px;&quot;&gt;MemRead&lt;/font&gt;" style="text;html=1;align=center;verticalAlign=middle;resizable=0;points=[];autosize=1;strokeColor=none;fillColor=none;fontColor=#5AA9E6;rotation=0;" parent="1" vertex="1">
          <mxGeometry x="1201" y="694" width="46" height="26" as="geometry" />
        </mxCell>
        <mxCell id="Bo9uxjZNozG0tCEq4NQd-103" value="&lt;font style=&quot;font-size: 6px;&quot;&gt;clk&lt;/font&gt;" style="text;html=1;align=center;verticalAlign=middle;resizable=0;points=[];autosize=1;strokeColor=none;fillColor=none;fontColor=#5AA9E6;rotation=0;" parent="1" vertex="1">
          <mxGeometry x="1212" y="530" width="25" height="26" as="geometry" />
        </mxCell>
        <mxCell id="Bo9uxjZNozG0tCEq4NQd-104" value="&lt;font style=&quot;font-size: 6px;&quot;&gt;MemWrite&lt;/font&gt;" style="text;html=1;align=center;verticalAlign=middle;resizable=0;points=[];autosize=1;strokeColor=none;fillColor=none;fontColor=#5AA9E6;rotation=0;" parent="1" vertex="1">
          <mxGeometry x="1158" y="517" width="45" height="26" as="geometry" />
        </mxCell>
        <mxCell id="Bo9uxjZNozG0tCEq4NQd-111" value="&lt;font style=&quot;font-size: 6px;&quot;&gt;in2&lt;/font&gt;" style="text;html=1;align=center;verticalAlign=middle;resizable=0;points=[];autosize=1;strokeColor=none;fillColor=none;fontColor=#5AA9E6;rotation=-90;" parent="1" vertex="1">
          <mxGeometry x="1265" y="308" width="26" height="26" as="geometry" />
        </mxCell>
        <mxCell id="Bo9uxjZNozG0tCEq4NQd-112" value="&lt;font style=&quot;font-size: 6px;&quot;&gt;in1&lt;/font&gt;" style="text;html=1;align=center;verticalAlign=middle;resizable=0;points=[];autosize=1;strokeColor=none;fillColor=none;fontColor=#5AA9E6;rotation=-75;" parent="1" vertex="1">
          <mxGeometry x="1268" y="258" width="26" height="26" as="geometry" />
        </mxCell>
        <mxCell id="Bo9uxjZNozG0tCEq4NQd-113" value="&lt;span style=&quot;font-size: 6px;&quot;&gt;MemtoReg&lt;/span&gt;" style="text;html=1;align=center;verticalAlign=middle;resizable=0;points=[];autosize=1;strokeColor=none;fillColor=none;fontColor=#5AA9E6;rotation=-90;" parent="1" vertex="1">
          <mxGeometry x="1268" y="258" width="47" height="26" as="geometry" />
        </mxCell>
        <mxCell id="Bo9uxjZNozG0tCEq4NQd-114" value="&lt;font style=&quot;font-size: 6px;&quot;&gt;out&lt;/font&gt;" style="text;html=1;align=center;verticalAlign=middle;resizable=0;points=[];autosize=1;strokeColor=none;fillColor=none;fontColor=#5AA9E6;rotation=-90;" parent="1" vertex="1">
          <mxGeometry x="1294" y="297.5" width="26" height="26" as="geometry" />
        </mxCell>
        <mxCell id="Bo9uxjZNozG0tCEq4NQd-116" value="PC" style="text;html=1;align=center;verticalAlign=middle;resizable=0;points=[];autosize=1;strokeColor=none;fillColor=none;fontColor=#5AA9E6;" parent="1" vertex="1">
          <mxGeometry x="132" y="430" width="35" height="26" as="geometry" />
        </mxCell>
        <mxCell id="Bo9uxjZNozG0tCEq4NQd-117" value="InstructionMemory" style="text;html=1;align=center;verticalAlign=middle;resizable=0;points=[];autosize=1;strokeColor=none;fillColor=none;fontColor=#5AA9E6;" parent="1" vertex="1">
          <mxGeometry x="287" y="414" width="117" height="26" as="geometry" />
        </mxCell>
        <mxCell id="Bo9uxjZNozG0tCEq4NQd-119" value="Inst_Mem" style="text;html=1;align=center;verticalAlign=middle;resizable=0;points=[];autosize=1;strokeColor=none;fillColor=none;fontColor=#5AA9E6;" parent="1" vertex="1">
          <mxGeometry x="277" y="361" width="71" height="26" as="geometry" />
        </mxCell>
        <mxCell id="Bo9uxjZNozG0tCEq4NQd-120" value="Add2" style="text;html=1;align=center;verticalAlign=middle;resizable=0;points=[];autosize=1;strokeColor=none;fillColor=none;fontColor=#5AA9E6;" parent="1" vertex="1">
          <mxGeometry x="228" y="184" width="46" height="26" as="geometry" />
        </mxCell>
        <mxCell id="Bo9uxjZNozG0tCEq4NQd-121" value="Add2" style="text;html=1;align=center;verticalAlign=middle;resizable=0;points=[];autosize=1;strokeColor=none;fillColor=none;fontColor=#5AA9E6;" parent="1" vertex="1">
          <mxGeometry x="211" y="134" width="46" height="26" as="geometry" />
        </mxCell>
        <mxCell id="Bo9uxjZNozG0tCEq4NQd-122" value="Add&lt;span style=&quot;color: rgba(0, 0, 0, 0); font-family: monospace; font-size: 0px; text-align: start;&quot;&gt;%3CmxGraphModel%3E%3Croot%3E%3CmxCell%20id%3D%220%22%2F%3E%3CmxCell%20id%3D%221%22%20parent%3D%220%22%2F%3E%3CmxCell%20id%3D%222%22%20value%3D%22Add2%22%20style%3D%22text%3Bhtml%3D1%3Balign%3Dcenter%3BverticalAlign%3Dmiddle%3Bresizable%3D0%3Bpoints%3D%5B%5D%3Bautosize%3D1%3BstrokeColor%3Dnone%3BfillColor%3Dnone%3BfontColor%3D%235AA9E6%3B%22%20vertex%3D%221%22%20parent%3D%221%22%3E%3CmxGeometry%20x%3D%22228%22%20y%3D%22184%22%20width%3D%2246%22%20height%3D%2226%22%20as%3D%22geometry%22%2F%3E%3C%2FmxCell%3E%3C%2Froot%3E%3C%2FmxGraphModel%3E&lt;/span&gt;&lt;span style=&quot;color: rgba(0, 0, 0, 0); font-family: monospace; font-size: 0px; text-align: start;&quot;&gt;%3CmxGraphModel%3E%3Croot%3E%3CmxCell%20id%3D%220%22%2F%3E%3CmxCell%20id%3D%221%22%20parent%3D%220%22%2F%3E%3CmxCell%20id%3D%222%22%20value%3D%22Add2%22%20style%3D%22text%3Bhtml%3D1%3Balign%3Dcenter%3BverticalAlign%3Dmiddle%3Bresizable%3D0%3Bpoints%3D%5B%5D%3Bautosize%3D1%3BstrokeColor%3Dnone%3BfillColor%3Dnone%3BfontColor%3D%235AA9E6%3B%22%20vertex%3D%221%22%20parent%3D%221%22%3E%3CmxGeometry%20x%3D%22228%22%20y%3D%22184%22%20width%3D%2246%22%20height%3D%2226%22%20as%3D%22geometry%22%2F%3E%3C%2FmxCell%3E%3C%2Froot%3E%3C%2FmxGraphModel%3E&lt;/span&gt;" style="text;html=1;align=center;verticalAlign=middle;resizable=0;points=[];autosize=1;strokeColor=none;fillColor=none;fontColor=#5AA9E6;" parent="1" vertex="1">
          <mxGeometry x="733" y="154" width="39" height="26" as="geometry" />
        </mxCell>
        <mxCell id="Bo9uxjZNozG0tCEq4NQd-123" value="Add&lt;span style=&quot;color: rgba(0, 0, 0, 0); font-family: monospace; font-size: 0px; text-align: start;&quot;&gt;%3CmxGraphModel%3E%3Croot%3E%3CmxCell%20id%3D%220%22%2F%3E%3CmxCell%20id%3D%221%22%20parent%3D%220%22%2F%3E%3CmxCell%20id%3D%222%22%20value%3D%22Add2%22%20style%3D%22text%3Bhtml%3D1%3Balign%3Dcenter%3BverticalAlign%3Dmiddle%3Bresizable%3D0%3Bpoints%3D%5B%5D%3Bautosize%3D1%3BstrokeColor%3Dnone%3BfillColor%3Dnone%3BfontColor%3D%235AA9E6%3B%22%20vertex%3D%221%22%20parent%3D%221%22%3E%3CmxGeometry%20x%3D%22228%22%20y%3D%22184%22%20width%3D%2246%22%20height%3D%2226%22%20as%3D%22geometry%22%2F%3E%3C%2FmxCell%3E%3C%2Froot%3E%3C%2FmxGraphModel%3E&lt;/span&gt;&lt;span style=&quot;color: rgba(0, 0, 0, 0); font-family: monospace; font-size: 0px; text-align: start;&quot;&gt;%3CmxGraphModel%3E%3Croot%3E%3CmxCell%20id%3D%220%22%2F%3E%3CmxCell%20id%3D%221%22%20parent%3D%220%22%2F%3E%3CmxCell%20id%3D%222%22%20value%3D%22Add2%22%20style%3D%22text%3Bhtml%3D1%3Balign%3Dcenter%3BverticalAlign%3Dmiddle%3Bresizable%3D0%3Bpoints%3D%5B%5D%3Bautosize%3D1%3BstrokeColor%3Dnone%3BfillColor%3Dnone%3BfontColor%3D%235AA9E6%3B%22%20vertex%3D%221%22%20parent%3D%221%22%3E%3CmxGeometry%20x%3D%22228%22%20y%3D%22184%22%20width%3D%2246%22%20height%3D%2226%22%20as%3D%22geometry%22%2F%3E%3C%2FmxCell%3E%3C%2Froot%3E%3C%2FmxGraphModel%3E&lt;/span&gt;" style="text;html=1;align=center;verticalAlign=middle;resizable=0;points=[];autosize=1;strokeColor=none;fillColor=none;fontColor=#5AA9E6;" parent="1" vertex="1">
          <mxGeometry x="747" y="209" width="39" height="26" as="geometry" />
        </mxCell>
        <mxCell id="Bo9uxjZNozG0tCEq4NQd-124" value="imm_gen" style="text;html=1;align=center;verticalAlign=middle;resizable=0;points=[];autosize=1;strokeColor=none;fillColor=none;fontColor=#5AA9E6;" parent="1" vertex="1">
          <mxGeometry x="490" y="588" width="67" height="26" as="geometry" />
        </mxCell>
        <mxCell id="Bo9uxjZNozG0tCEq4NQd-125" value="imm_gen" style="text;html=1;align=center;verticalAlign=middle;resizable=0;points=[];autosize=1;strokeColor=none;fillColor=none;fontColor=#5AA9E6;" parent="1" vertex="1">
          <mxGeometry x="484.5" y="635" width="67" height="26" as="geometry" />
        </mxCell>
        <mxCell id="Bo9uxjZNozG0tCEq4NQd-126" value="Registers" style="text;html=1;align=center;verticalAlign=middle;resizable=0;points=[];autosize=1;strokeColor=none;fillColor=none;fontColor=#5AA9E6;" parent="1" vertex="1">
          <mxGeometry x="598" y="428" width="69" height="26" as="geometry" />
        </mxCell>
        <mxCell id="Bo9uxjZNozG0tCEq4NQd-127" value="Reg_file" style="text;html=1;align=center;verticalAlign=middle;resizable=0;points=[];autosize=1;strokeColor=none;fillColor=none;fontColor=#5AA9E6;" parent="1" vertex="1">
          <mxGeometry x="664" y="314" width="62" height="26" as="geometry" />
        </mxCell>
        <mxCell id="Bo9uxjZNozG0tCEq4NQd-128" value="Mux" style="text;html=1;align=center;verticalAlign=middle;resizable=0;points=[];autosize=1;strokeColor=none;fillColor=none;fontColor=#5AA9E6;" parent="1" vertex="1">
          <mxGeometry x="1273" y="326" width="41" height="26" as="geometry" />
        </mxCell>
        <mxCell id="Bo9uxjZNozG0tCEq4NQd-129" value="Mux" style="text;html=1;align=center;verticalAlign=middle;resizable=0;points=[];autosize=1;strokeColor=none;fillColor=none;fontColor=#5AA9E6;" parent="1" vertex="1">
          <mxGeometry x="887" y="123" width="41" height="26" as="geometry" />
        </mxCell>
        <mxCell id="Bo9uxjZNozG0tCEq4NQd-130" value="Mux" style="text;html=1;align=center;verticalAlign=middle;resizable=0;points=[];autosize=1;strokeColor=none;fillColor=none;fontColor=#5AA9E6;" parent="1" vertex="1">
          <mxGeometry x="868" y="571" width="41" height="26" as="geometry" />
        </mxCell>
        <mxCell id="Bo9uxjZNozG0tCEq4NQd-131" value="m3" style="text;html=1;align=center;verticalAlign=middle;resizable=0;points=[];autosize=1;strokeColor=none;fillColor=none;fontColor=#5AA9E6;" parent="1" vertex="1">
          <mxGeometry x="1297" y="356" width="35" height="26" as="geometry" />
        </mxCell>
        <mxCell id="Bo9uxjZNozG0tCEq4NQd-132" value="m2" style="text;html=1;align=center;verticalAlign=middle;resizable=0;points=[];autosize=1;strokeColor=none;fillColor=none;fontColor=#5AA9E6;" parent="1" vertex="1">
          <mxGeometry x="890" y="597" width="35" height="26" as="geometry" />
        </mxCell>
        <mxCell id="Bo9uxjZNozG0tCEq4NQd-133" value="m1" style="text;html=1;align=center;verticalAlign=middle;resizable=0;points=[];autosize=1;strokeColor=none;fillColor=none;fontColor=#5AA9E6;" parent="1" vertex="1">
          <mxGeometry x="906" y="74" width="35" height="26" as="geometry" />
        </mxCell>
        <mxCell id="Bo9uxjZNozG0tCEq4NQd-134" value="ALU" style="text;html=1;align=center;verticalAlign=middle;resizable=0;points=[];autosize=1;strokeColor=none;fillColor=none;fontColor=#5AA9E6;" parent="1" vertex="1">
          <mxGeometry x="1015" y="399" width="41" height="26" as="geometry" />
        </mxCell>
        <mxCell id="Bo9uxjZNozG0tCEq4NQd-135" value="alu" style="text;html=1;align=center;verticalAlign=middle;resizable=0;points=[];autosize=1;strokeColor=none;fillColor=none;fontColor=#5AA9E6;" parent="1" vertex="1">
          <mxGeometry x="971" y="317" width="34" height="26" as="geometry" />
        </mxCell>
        <mxCell id="Bo9uxjZNozG0tCEq4NQd-136" value="DataMemory" style="text;html=1;align=center;verticalAlign=middle;resizable=0;points=[];autosize=1;strokeColor=none;fillColor=none;fontColor=#5AA9E6;" parent="1" vertex="1">
          <mxGeometry x="1180.5" y="617" width="87" height="26" as="geometry" />
        </mxCell>
        <mxCell id="Bo9uxjZNozG0tCEq4NQd-137" value="Data_Mem" style="text;html=1;align=center;verticalAlign=middle;resizable=0;points=[];autosize=1;strokeColor=none;fillColor=none;fontColor=#5AA9E6;" parent="1" vertex="1">
          <mxGeometry x="1261" y="720" width="77" height="26" as="geometry" />
        </mxCell>
        <mxCell id="axt1bBMfJhuk3GHfjVfh-1" value="&lt;font style=&quot;font-size: 18px;&quot;&gt;processor_datapath&lt;/font&gt;" style="text;html=1;align=center;verticalAlign=middle;resizable=0;points=[];autosize=1;strokeColor=none;fillColor=none;fontColor=#5AA9E6;" parent="1" vertex="1">
          <mxGeometry x="9" y="3" width="177" height="34" as="geometry" />
        </mxCell>
        <mxCell id="yiFU0oVUIUAgTVlSvjVD-1" value="" style="endArrow=none;html=1;rounded=0;strokeColor=#FF6666;" edge="1" parent="1">
          <mxGeometry width="50" height="50" relative="1" as="geometry">
            <mxPoint x="85" y="492.5" as="sourcePoint" />
            <mxPoint x="96" y="479.5" as="targetPoint" />
          </mxGeometry>
        </mxCell>
        <mxCell id="yiFU0oVUIUAgTVlSvjVD-2" value="" style="endArrow=none;html=1;rounded=0;strokeColor=#FF6666;" edge="1" parent="1">
          <mxGeometry width="50" height="50" relative="1" as="geometry">
            <mxPoint x="149" y="492.5" as="sourcePoint" />
            <mxPoint x="160" y="479.5" as="targetPoint" />
          </mxGeometry>
        </mxCell>
        <mxCell id="yiFU0oVUIUAgTVlSvjVD-3" value="" style="endArrow=none;html=1;rounded=0;strokeColor=#FF6666;" edge="1" parent="1">
          <mxGeometry width="50" height="50" relative="1" as="geometry">
            <mxPoint x="570" y="700" as="sourcePoint" />
            <mxPoint x="581" y="687" as="targetPoint" />
          </mxGeometry>
        </mxCell>
        <mxCell id="yiFU0oVUIUAgTVlSvjVD-4" value="" style="endArrow=none;html=1;rounded=0;strokeColor=#FF6666;" edge="1" parent="1">
          <mxGeometry width="50" height="50" relative="1" as="geometry">
            <mxPoint x="473.5" y="494" as="sourcePoint" />
            <mxPoint x="484.5" y="481" as="targetPoint" />
          </mxGeometry>
        </mxCell>
        <mxCell id="yiFU0oVUIUAgTVlSvjVD-5" value="" style="endArrow=none;html=1;rounded=0;strokeColor=#FF6666;" edge="1" parent="1">
          <mxGeometry width="50" height="50" relative="1" as="geometry">
            <mxPoint x="318" y="178" as="sourcePoint" />
            <mxPoint x="329" y="165" as="targetPoint" />
          </mxGeometry>
        </mxCell>
        <mxCell id="yiFU0oVUIUAgTVlSvjVD-6" value="" style="endArrow=none;html=1;rounded=0;strokeColor=#FF6666;" edge="1" parent="1">
          <mxGeometry width="50" height="50" relative="1" as="geometry">
            <mxPoint x="813" y="211.5" as="sourcePoint" />
            <mxPoint x="824" y="198.5" as="targetPoint" />
          </mxGeometry>
        </mxCell>
        <mxCell id="yiFU0oVUIUAgTVlSvjVD-7" value="" style="endArrow=none;html=1;rounded=0;strokeColor=#FF6666;" edge="1" parent="1">
          <mxGeometry width="50" height="50" relative="1" as="geometry">
            <mxPoint x="733" y="382" as="sourcePoint" />
            <mxPoint x="744" y="369" as="targetPoint" />
          </mxGeometry>
        </mxCell>
        <mxCell id="yiFU0oVUIUAgTVlSvjVD-8" value="" style="endArrow=none;html=1;rounded=0;strokeColor=#FF6666;" edge="1" parent="1">
          <mxGeometry width="50" height="50" relative="1" as="geometry">
            <mxPoint x="733" y="499" as="sourcePoint" />
            <mxPoint x="744" y="486" as="targetPoint" />
          </mxGeometry>
        </mxCell>
        <mxCell id="yiFU0oVUIUAgTVlSvjVD-9" value="" style="endArrow=none;html=1;rounded=0;strokeColor=#FF6666;" edge="1" parent="1">
          <mxGeometry width="50" height="50" relative="1" as="geometry">
            <mxPoint x="916.5" y="552.5" as="sourcePoint" />
            <mxPoint x="927.5" y="539.5" as="targetPoint" />
          </mxGeometry>
        </mxCell>
        <mxCell id="yiFU0oVUIUAgTVlSvjVD-10" value="" style="endArrow=none;html=1;rounded=0;strokeColor=#FF6666;" edge="1" parent="1">
          <mxGeometry width="50" height="50" relative="1" as="geometry">
            <mxPoint x="1105" y="447.5" as="sourcePoint" />
            <mxPoint x="1116" y="434.5" as="targetPoint" />
          </mxGeometry>
        </mxCell>
        <mxCell id="yiFU0oVUIUAgTVlSvjVD-11" value="" style="endArrow=none;html=1;rounded=0;strokeColor=#FF6666;" edge="1" parent="1">
          <mxGeometry width="50" height="50" relative="1" as="geometry">
            <mxPoint x="1309" y="627" as="sourcePoint" />
            <mxPoint x="1320" y="614" as="targetPoint" />
          </mxGeometry>
        </mxCell>
        <mxCell id="yiFU0oVUIUAgTVlSvjVD-14" value="&lt;font style=&quot;color: rgb(51, 153, 255);&quot;&gt;inst_control&lt;/font&gt;" style="text;html=1;align=center;verticalAlign=middle;resizable=0;points=[];autosize=1;strokeColor=none;fillColor=none;" vertex="1" parent="1">
          <mxGeometry x="542" y="242" width="79" height="26" as="geometry" />
        </mxCell>
        <mxCell id="yiFU0oVUIUAgTVlSvjVD-15" value="&lt;font style=&quot;color: rgb(102, 178, 255);&quot;&gt;inst_alu&lt;/font&gt;" style="text;html=1;align=center;verticalAlign=middle;resizable=0;points=[];autosize=1;strokeColor=none;fillColor=none;" vertex="1" parent="1">
          <mxGeometry x="296" y="661" width="59" height="26" as="geometry" />
        </mxCell>
        <mxCell id="yiFU0oVUIUAgTVlSvjVD-16" value="&lt;font style=&quot;font-size: 9px; color: rgb(51, 153, 255);&quot;&gt;[31-25, 14-12]&lt;/font&gt;" style="text;html=1;align=center;verticalAlign=middle;resizable=0;points=[];autosize=1;strokeColor=none;fillColor=none;" vertex="1" parent="1">
          <mxGeometry x="382" y="653" width="74" height="26" as="geometry" />
        </mxCell>
        <mxCell id="yiFU0oVUIUAgTVlSvjVD-17" value="&lt;font style=&quot;font-size: 9px; color: rgb(51, 153, 255);&quot;&gt;[7:0]&lt;/font&gt;" style="text;html=1;align=center;verticalAlign=middle;resizable=0;points=[];autosize=1;strokeColor=none;fillColor=none;" vertex="1" parent="1">
          <mxGeometry x="456" y="311" width="36" height="26" as="geometry" />
        </mxCell>
        <mxCell id="yiFU0oVUIUAgTVlSvjVD-19" value="&lt;font style=&quot;font-size: 9px; color: rgb(51, 153, 255);&quot;&gt;32&lt;/font&gt;" style="text;html=1;align=center;verticalAlign=middle;resizable=0;points=[];autosize=1;strokeColor=none;fillColor=none;" vertex="1" parent="1">
          <mxGeometry x="142" y="487" width="28" height="26" as="geometry" />
        </mxCell>
        <mxCell id="yiFU0oVUIUAgTVlSvjVD-20" value="&lt;font style=&quot;font-size: 9px; color: rgb(51, 153, 255);&quot;&gt;32&lt;/font&gt;" style="text;html=1;align=center;verticalAlign=middle;resizable=0;points=[];autosize=1;strokeColor=none;fillColor=none;" vertex="1" parent="1">
          <mxGeometry x="76" y="487" width="28" height="26" as="geometry" />
        </mxCell>
        <mxCell id="yiFU0oVUIUAgTVlSvjVD-21" value="&lt;font style=&quot;font-size: 9px; color: rgb(51, 153, 255);&quot;&gt;32&lt;/font&gt;" style="text;html=1;align=center;verticalAlign=middle;resizable=0;points=[];autosize=1;strokeColor=none;fillColor=none;" vertex="1" parent="1">
          <mxGeometry x="311.5" y="143" width="28" height="26" as="geometry" />
        </mxCell>
        <mxCell id="yiFU0oVUIUAgTVlSvjVD-22" value="&lt;font style=&quot;font-size: 9px; color: rgb(51, 153, 255);&quot;&gt;32&lt;/font&gt;" style="text;html=1;align=center;verticalAlign=middle;resizable=0;points=[];autosize=1;strokeColor=none;fillColor=none;" vertex="1" parent="1">
          <mxGeometry x="466" y="487" width="28" height="26" as="geometry" />
        </mxCell>
        <mxCell id="yiFU0oVUIUAgTVlSvjVD-23" value="&lt;font style=&quot;font-size: 9px; color: rgb(51, 153, 255);&quot;&gt;32&lt;/font&gt;" style="text;html=1;align=center;verticalAlign=middle;resizable=0;points=[];autosize=1;strokeColor=none;fillColor=none;" vertex="1" parent="1">
          <mxGeometry x="560" y="696" width="28" height="26" as="geometry" />
        </mxCell>
        <mxCell id="yiFU0oVUIUAgTVlSvjVD-24" value="&lt;font style=&quot;font-size: 9px; color: rgb(51, 153, 255);&quot;&gt;32&lt;/font&gt;" style="text;html=1;align=center;verticalAlign=middle;resizable=0;points=[];autosize=1;strokeColor=none;fillColor=none;" vertex="1" parent="1">
          <mxGeometry x="726" y="493" width="28" height="26" as="geometry" />
        </mxCell>
        <mxCell id="yiFU0oVUIUAgTVlSvjVD-25" value="&lt;font style=&quot;font-size: 9px; color: rgb(51, 153, 255);&quot;&gt;32&lt;/font&gt;" style="text;html=1;align=center;verticalAlign=middle;resizable=0;points=[];autosize=1;strokeColor=none;fillColor=none;" vertex="1" parent="1">
          <mxGeometry x="726" y="375" width="28" height="26" as="geometry" />
        </mxCell>
        <mxCell id="yiFU0oVUIUAgTVlSvjVD-26" value="&lt;font style=&quot;font-size: 9px; color: rgb(51, 153, 255);&quot;&gt;32&lt;/font&gt;" style="text;html=1;align=center;verticalAlign=middle;resizable=0;points=[];autosize=1;strokeColor=none;fillColor=none;" vertex="1" parent="1">
          <mxGeometry x="807" y="206" width="28" height="26" as="geometry" />
        </mxCell>
        <mxCell id="yiFU0oVUIUAgTVlSvjVD-27" value="&lt;font style=&quot;font-size: 9px; color: rgb(51, 153, 255);&quot;&gt;32&lt;/font&gt;" style="text;html=1;align=center;verticalAlign=middle;resizable=0;points=[];autosize=1;strokeColor=none;fillColor=none;" vertex="1" parent="1">
          <mxGeometry x="1099" y="414" width="28" height="26" as="geometry" />
        </mxCell>
        <mxCell id="yiFU0oVUIUAgTVlSvjVD-28" value="&lt;font style=&quot;font-size: 9px; color: rgb(51, 153, 255);&quot;&gt;32&lt;/font&gt;" style="text;html=1;align=center;verticalAlign=middle;resizable=0;points=[];autosize=1;strokeColor=none;fillColor=none;" vertex="1" parent="1">
          <mxGeometry x="909" y="519" width="28" height="26" as="geometry" />
        </mxCell>
        <mxCell id="yiFU0oVUIUAgTVlSvjVD-29" value="&lt;font style=&quot;font-size: 9px; color: rgb(51, 153, 255);&quot;&gt;32&lt;/font&gt;" style="text;html=1;align=center;verticalAlign=middle;resizable=0;points=[];autosize=1;strokeColor=none;fillColor=none;" vertex="1" parent="1">
          <mxGeometry x="1304" y="623" width="28" height="26" as="geometry" />
        </mxCell>
      </root>
    </mxGraphModel>
  </diagram>
</mxfile>
